<?xml version="1.0" encoding="utf-8"?>
<svg version="1.1" id="Layer_1" xmlns="http://www.w3.org/2000/svg" xmlns:xlink="http://www.w3.org/1999/xlink" x="0px" y="0px"
	 viewBox="0 0 2586.589 1348.853" enable-background="new 0 0 2586.589 1348.853" xml:space="preserve">
<path d="M2554.596,1329.12c-0.949-0.475-2.831-1.458-3.763-1.933c-22.039,3.781-44.755-1.271-66.743,2.679
	c-2.831-0.949-5.628-1.916-8.375-2.899c-2.407,0.831-4.797,1.678-7.154,2.543c-22.859-1.519-15.184,1.156-28.904-11.731
	c-0.136-3.424-0.22-6.815-0.254-10.205c-0.61,0.644-1.831,1.949-2.458,2.611c-1.492-2.424-2.933-4.849-4.374-7.256
	c-0.559,0.407-1.712,1.204-2.272,1.61c-3.306-1.255-5.51,0.593-6.866,3.492c-0.627,0.017-1.882,0.034-2.492,0.051
	c0.627,1.17,1.882,3.475,2.509,4.645c-9.239-2.967-17.512-8.069-26.293-12.036c0.56-0.712,1.695-2.136,2.271-2.848
	c-0.661-0.814-1.949-2.441-2.594-3.255c-3.492,0-6.968,0.017-10.392,0.034c-0.356-2.39-0.882-5.526-4.069-5.052
	c-5.171-0.594-10.375-0.339-15.546-0.085c0.051,5.357,0.085,10.731-0.034,16.105c-5.442-0.763-4.577-6.933-5.56-10.867
	c-2.323-0.102-4.611-0.17-6.849-0.237c-0.695-0.865-2.085-2.577-2.78-3.441c-3.374,2-6.951,3.746-10.951,2.678
	c-0.746,0.153-2.221,0.458-2.967,0.61c-0.763-0.17-2.289-0.526-3.034-0.712c-2.289,0.356-4.73,0.882-6.544-1
	c-3.391,1.475-6.391,3.577-8.052,6.984c-2.39-0.034-4.747-0.051-7.069-0.034c-0.848-1.441-1.678-2.865-2.475-4.255
	c-2.95-2.153-5.781-4.442-8.527-6.764c-4.984-0.39-9.968-0.339-14.867,0.526c-3.272-5.221-4.848-11.511-8.883-16.19
	c-3.255-0.882-6.612-1.238-9.9-1.763c-1.034,0.373-3.102,1.119-4.153,1.509c-0.407-1.051-1.221-3.136-1.628-4.17
	c0.187-0.593,0.543-1.78,0.729-2.373c-0.475-0.932-1.441-2.78-1.916-3.696c-2.39-0.034-4.73-0.051-7.052-0.017
	c-1.814-1.136-3.628-2.255-5.391-3.357c-2.306-0.034-4.577-0.051-6.815-0.034c-0.661,0.848-2.018,2.577-2.696,3.424
	c-6.679-0.051-13.359-0.085-20.004-0.017c1.509-11.307-2.797-22.53-0.576-33.702c-0.237-2.17-0.254-4.34-0.102-6.493
	c-0.169-0.441-0.491-1.356-0.661-1.814c-0.085-3.916-0.78-7.697-3.323-10.748c-0.17,2.679-0.271,5.374-0.322,8.086
	c-2.255-0.733-39.563-1.157-40.568-1.17c-0.119-2.051-0.203-4.069-0.271-6.069c-0.763-0.729-2.306-2.17-3.085-2.882
	c-4.306,17.783-0.509,36.296-2.356,54.333c-4.357,3.543-8.052-2.509-11.545-4.645c-4.781-2.899-1.594-9.985-5.238-13.206
	c-5.425-0.509-11.206-0.085-15.478-4.086c0.695-4.577,1.594-9.121,2.339-13.681c-10.269-4.15-10.845-21.844-18.665-36.584
	c-0.915,0.356-2.746,1.085-3.662,1.458c-3.463-1.775-4.943-2.149-8.069-6.408c0.424-0.593,1.288-1.78,1.712-2.356
	c-0.17-2.136-0.288-4.272-0.39-6.374c1.678-1.831,3.34-3.696,5.052-5.527c-0.831-0.254-2.475-0.763-3.306-1.034
	c-4.577,2.221-9.188,4.391-14.223,5.272c0.729-1,2.204-3,2.933-3.984c1.136-0.017,3.407-0.017,4.526-0.034v-3.306
	c-3.153-0.017-6.306,0-9.409,0c1.153-0.78,3.441-2.306,4.594-3.068c-1.407-1.238-2.865-2.492-4.204-3.679
	c1.441-0.017,4.357-0.034,5.798-0.051c-0.034-1.034-0.135-3.102-0.169-4.136c-1.339,0.237-3.984,0.746-5.306,0.983
	c0.22-1.255,0.661-3.78,0.882-5.052c-4.221-2.255-8.816-3.611-13.562-3.967c0.509-1.695,1.051-3.391,1.594-5.069
	c-0.576-0.542-1.712-1.594-2.289-2.136c1.967-3.645,1-7.578,0.661-11.426c1.339-2.729,3.001-5.289,4.611-7.883
	c-1.899-0.916-3.781-1.797-5.645-2.678c0.848-1.695,1.695-3.374,2.594-5.052c-1.305,0.187-3.916,0.542-5.222,0.712
	c-3.662,4.391-8.222,7.849-13.121,10.714c-0.848-1.984-1.678-3.95-2.492-5.9c-1.034,0.542-3.119,1.627-4.17,2.17
	c1.407-5.289,5.865-8.426,9.985-11.545c-1.221-0.797-2.424-1.577-3.594-2.356c-2.34,0.814-4.662,1.627-6.985,2.424
	c-0.831-1.882-1.661-3.747-2.441-5.594c2.068-1.373,4.17-2.729,6.306-4.069c-3.153,0.203-6.272,0.424-9.358,0.644
	c0.594-1.56,1.221-3.102,1.882-4.628c-3.221-1-6.391-2.102-9.528-3.221c-1.136-5.594-7.154-6.594-11.409-9.053
	c0.729-2.221,1.492-4.408,2.272-6.595c-0.644-0.492-1.933-1.458-2.577-1.933c-0.831,0.78-2.475,2.356-3.289,3.136
	c-0.61-0.492-1.848-1.492-2.475-1.984c-1.526,1.899-3.052,3.814-4.51,5.747c-3.746-0.966-7.849-3.424-10.85,0.305
	c0.187-4.086-1.441-7.714-4.747-10.07c-0.119,1.221-0.356,3.645-0.475,4.849c-1.763-1.187-3.509-2.356-5.221-3.509
	c0.034,1.441,0.119,4.323,0.153,5.747c1.339,1.356,2.712,2.713,4.103,4.103c-4.865,0.152-10.951-1.577-13.85,3.594
	c-2.628-0.559-5.221-1.102-7.798-1.644c0.661,1.356,1.983,4.052,2.645,5.408c-3.374-3.306-7.239-5.984-12.087-5.832
	c0.22,4.34,4.696,11.867-2.017,12.952c0.797,2.831,1.576,5.645,2.323,8.527c-4.832-1.729-8.07-5.815-11.952-8.9
	c-0.119-0.865-0.322-2.577-0.441-3.441c-3.102-0.78-6.154-1.611-9.205-2.356c-1.763,3.865-3.95,7.527-6.697,10.782
	c0.305,1.848,0.611,3.713,0.916,5.578c-1.983-1.645-3.95-3.323-5.899-4.95c0.288,1.051,0.848,3.119,1.119,4.153
	c-5.832-2.899-12.443-1.695-18.682-1.729c-1.322-1.441-2.628-2.865-3.916-4.289c-0.085-6.357,0.373-12.698,1.695-18.919
	c-1.542-1.339-3.034-2.696-4.509-4.001c-3.153,1.814-6.662,1.611-10.07,0.983c-2.662,0.559-5.544,0.509-7.9,1.933
	c-1.763,2.204-1.085,5.306-1.542,7.951c-1.339,2.051-2.645,4.136-3.865,6.273c-5.001,1.78-10.341,1.526-15.546,1.577
	c-0.593,1.085-1.78,3.238-2.373,4.323c0.034-3.102-0.085-6.205,0.407-9.256c4.037-7.605,10.808-8.028,3.848-31.413
	c-2.051-1.119-4.492-0.949-6.679-1.356c-1.39-2.95-2.916-5.798-4.577-8.561c-0.712,0.526-2.119,1.577-2.831,2.102
	c-4.696-1.644-11.545-6.51-14.952-0.407c-5.832-0.712-11.613-0.085-16.986,2.323c-0.594-1-1.78-3.001-2.356-4.001
	c-2.831,0.051-5.628,0.085-8.392,0.119c-0.61,1.204-1.848,3.594-2.458,4.781c-0.644-0.763-1.95-2.272-2.611-3.035
	c-0.593,1.017-1.763,3.035-2.356,4.035c-1.966-1.933-3.899-3.814-5.815-5.747c0.491-1.136,1-2.255,1.526-3.357
	c-5.747-3.543-8.697-9.731-11.867-15.376c5.323-3.153,11.409-7.866,10.222-14.918c0.661-6.323-7.408-6.171-11.545-7.866
	c-1.289,1.644-4.272,4.509-6.069,1.763c-2.678-1.848-0.084-5.306,0.204-7.73c-0.356-4.747-1.746-9.324-4.306-13.342h-5.899
	c-0.509,0.288-1.543,0.898-2.052,1.204c-5.696-2.187-12.324-4.662-18.088-1.271c-0.916,1.729-1.661,3.56-2.221,5.442
	c-4.543,2.272-9.358,0.322-13.952-0.526c-0.763,0.882-2.289,2.662-3.052,3.543c-0.966,0.068-2.916,0.186-3.882,0.237
	c-0.441,0.831-1.288,2.458-1.712,3.289c-2.068,0.068-4.103,0.153-6.12,0.271c-2.068,0.797-4.12,1.594-6.154,2.39
	c0-4.459,0.051-8.9,0.118-13.359c2.272-3.136,4.391-6.391,6.29-9.782c-1.441-3.255-1.39-6.527,1.187-9.273
	c-0.848-3.679-4.086-5.594-6.595-8.002c-1.187-8.052-2.729-16.071-2.899-24.225c-0.746-0.746-2.221-2.238-2.967-2.984
	c1.592-7.078,0.148-18.745-0.305-31.701c0.424-0.729,1.271-2.204,1.695-2.95c-3.492-13.291-0.865-27.26-1.678-40.839
	c1.051-0.153,3.17-0.441,4.221-0.593c-1.356-1.933-2.729-3.848-4.052-5.747c-0.118-2.153-0.203-4.289-0.254-6.408
	c-1.305-2.051-2.577-4.086-3.831-6.12c-2.713,0.017-5.408,0.051-8.053,0.119c-2.797-8.646-1.238-17.817-1.594-26.717
	c-1.695-0.848-3.374-1.695-5.018-2.526c-1.729,0.814-3.424,1.644-5.086,2.475c-0.102,3.594-0.203,7.171-0.373,10.782
	c-6.883-6.035-10.918-14.511-17.156-21.14c-3.95-3.95-5.187-9.273-4.729-14.698c-1.102-1.407-2.17-2.814-3.204-4.204h-4.933
	c-3.838-30.725-2.095-24.612-6.832-32.346c-1.839,26.348,3.265,14.246-5.934,30.837c-6.137,1.831-12.664,1.712-18.97,1.136
	c-3.577-1.441-1.831-5.035-1.492-7.832c-0.576-1.373-1.746-4.12-2.323-5.493c-2,4.187-1.475,8.883-1.492,13.393
	c-4.085-0.797-8.222-0.254-12.24,0.458c0.047-18.081-1.797-44.196-1.797-44.196c2.215-26.797-17.461-83.708-17.088-103.462h-3
	c0.104,12.816-17.774,85.508-17.834,91.9c-1.102-0.085-3.323-0.254-4.442-0.339c-0.39-9.171,1.458-18.699-1.933-27.48
	c-2.255,0.559-4.492,1.136-6.713,1.729c-4.357-8.765-3.492-18.936-5.154-28.379c-1.221,0.288-3.679,0.865-4.899,1.153
	c0.491,1.543,1,3.085,1.543,4.645c-0.594,1-1.763,3.001-2.356,4.001c-4.713,0.61-9.392,1.373-14.071,2.034
	c-3.661-26.972-2.446-27.296-6.917-31.854c-0.17-4.458-0.187-8.917-0.153-13.376c-0.831-0.729-2.458-2.204-3.272-2.933
	c-0.16,7.424-0.704,17.618-2.068,25.141c-0.966-1.712-1.882-3.408-2.78-5.12c-0.949-5.577-1.95-11.155-2.17-16.8
	c-1.458-1.763-2.899-3.509-4.374-5.238c-0.475,6.917-1.136,13.85-2.831,20.598c-2.661-6.137-3.882-12.698-4.814-19.258
	c-2.272-0.916-4.526-1.831-6.764-2.729c-0.371,13.274-1.567,8.933-1.61,20.377c-0.797-0.848-2.407-2.543-3.221-3.391
	c-0.829-6.089-0.031-41.989-6.917-75.032c-0.797-0.763-2.373-2.306-3.17-3.068c1.153-6.815-3.018-13.799-0.068-20.275
	c-0.966-0.407-2.916-1.238-3.882-1.644c0.644-3.204,1.305-6.408,2.085-9.595c-0.763-0.017-2.289-0.051-3.068-0.085
	c-0.712-6.663-0.424-14.156-4.747-19.733c-1.909,18.284-1.693,6.766-2.424,19.75c-0.712,0.085-2.136,0.237-2.848,0.322
	c-0.932-9.002-3.933-17.648-4.357-26.734c-4.781,4.475-2.645,11.867-3.628,17.749c-0.593,0.441-1.78,1.339-2.39,1.797
	c-0.254,4.391,0.56,9.273-2.238,13.054c-2.712-5.391-3.407-11.358-3.136-17.309c-0.966-1.017-2.899-3.051-3.865-4.086
	c-1.356,5.899-1.305,11.969-1.102,17.987c-0.78,0.729-2.339,2.187-3.119,2.916c-1.305-4.509-0.237-10.918-5.001-13.494
	c0.085-6.391-3.204-11.867-6.459-17.088c2.424-6.645-3.831-12.206-2.424-19.004c-2.051-3.899-2.017-8.256-0.305-12.257
	c-3.577-6.425-5.815-14.427-3.56-21.648c-1.373-1.56-2.746-3.085-4.153-4.56c-1.678,9.188-0.288,19.326-5.154,27.667
	c0.322,0.61,0.932,1.831,1.255,2.441c-1.017,3.085-2.068,6.137-3.119,9.188c0.305,0.39,0.916,1.153,1.238,1.543
	c-2.696,7.595-1.865,16.393-7.256,22.869c-1.051,0.085-3.136,0.237-4.17,0.322c0.159-2.242-0.411-27.643-4.967-30.091
	c-0.17,2.594-0.288,5.188-0.373,7.798h-1.61c-0.017-2.102-0.017-4.187,0.017-6.273c-0.848-0.695-2.56-2.102-3.407-2.814
	c-0.017,2.695-0.017,5.391,0,8.103c-1.628-1.56-3.204-3.136-4.764-4.696c-1.933,8.324-1.305,17.088-4.255,25.175
	c-1.034-2.95-2.272-5.832-5.577-6.544c-0.305,1.441-0.916,4.323-1.221,5.764c-4.323-3.424-9.121-7.544-9.205-13.545
	c-0.814-3.543,0.797-8.849-4.17-9.629c0.542,2.967,1.203,5.933,1.882,8.883c-8.527-9.036-15.427-19.394-23.31-28.938
	c-0.356-6.205,2.695-12.63-0.746-18.411c-0.678,0.966-2.051,2.899-2.729,3.865c0.831,4.442,1.39,8.934,1.729,13.444
	c-13.579,0.438-68.238-0.272-69.251-0.339c-1.305-1.153-2.594-2.289-3.848-3.424c0.017-7.493,0.017-14.986,0-22.479
	c0.865-0.729,2.577-2.204,3.441-2.933c-0.034-1.204-0.068-3.611-0.085-4.815c0.458-0.644,1.407-1.916,1.865-2.56
	c-11.22-14.224-4.542,6.532-33.736-59.249c-0.135-0.763-0.39-2.272-0.509-3.035c-3.967-7.408-7.612-14.969-11.477-22.411
	c-0.169-1.509-0.322-3.018-0.441-4.509c-3.243-4.472-15.749-24.518-16.834-46.518c4.272-5.323,12.579-4.425,16.342-9.985
	c-3.746-0.644-7.442-1.254-11.155-1.899c0-2.746,0.034-5.476,0.051-8.222c-1.678-0.881-3.34-1.763-4.984-2.662
	c-1.865-10.528,0.017-21.208-2.085-31.735c1.61-0.186,4.814-0.576,6.408-0.763c-1.695-2.17-3.696-4.035-5.916-5.611
	c-4.095-45.039,0.311-20.645-4.849-47.654c-1.221,2.289-2.424,4.56-3.628,6.832c0.542-11.697-1.543-23.191-2.306-34.804
	c-1.848-3.882-1.255-8.137-0.526-12.206c-0.718-7.783-6.505-82.967-6.713-84.221c0.763-3.763,1.373-7.663-0.492-11.223
	c-0.305-5.103,0.017-10.341-1.627-15.257c-0.237-4.161-0.596-8.383-0.303-12.551c-0.085-0.29-0.174-0.58-0.257-0.871
	c-1.249-0.295-2.484-0.627-3.694-1.006c1.457,7.949-3.942,115.384-3.901,115.635c-0.509,3.119-1.051,6.222-1.576,9.324
	c1.39,10.341-0.644,20.869-1.17,31.261c-0.898,0.288-2.662,0.848-3.56,1.136c0.034,1.492,0.068,3.001,0.119,4.509
	c-2.729,11.511-3.187,23.429-3.001,35.228c0.288,7.239-4.764,13.918-2.729,21.208c1.085,4.628,0.949,9.392-0.22,13.986
	c1.424,6.9,2.255,14.223-0.322,20.97c-1.288-0.051-3.882-0.136-5.171-0.186c-0.085,3.085-0.153,6.188-0.237,9.29
	c-2.102,0.831-4.17,1.661-6.222,2.509c-1.153-0.526-3.441-1.543-4.577-2.051c0.458,5.73,5.781,5.764,10.29,5.611
	c2.628,2.051,5.052,4.357,6.917,7.154c1.39-0.678,2.78-1.356,4.204-2.034c-1.526,4.001-3.221,7.917-4.899,11.833
	c0.271,2.763,0.475,5.526,0.695,8.307c-8.069,6.086-7.425,17.326-11.985,25.666c-1.373-0.475-2.712-0.915-4.052-1.373
	c-0.695,5.493-1.814,10.934-3.068,16.342c-7.186,10.64-20.962,47.053-24.107,52.062c-1.841,10.124-10.379,17.743-16.919,26.836
	c-0.037,1.002,7.692,74.064-0.17,99.054c-3.441,8.205,0.068,17.071-1.644,25.565c-1.011,0.016-74.622-0.026-81.932-1.187
	c-0.814,0.305-2.441,0.915-3.255,1.204c-0.78-0.271-2.339-0.831-3.119-1.102c-3.579,0.59-110.866-0.79-111.871-0.814
	c-2.763,8.341-5.527,16.715-7.069,25.395c-3.933,0.492-9.46-0.882-11.562,3.526c-26.056,44.783-9.003,39.477-10.748,54.282
	c-1.136,14.613,3.34,29.854-2.594,43.857c-1.712-0.051-3.424-0.102-5.103-0.119c-0.102-1.102-0.305-3.323-0.407-4.425
	c-1.577-0.729-3.153-1.458-4.73-2.153c-0.136,2.323-0.254,4.645-0.356,6.984c-12.579,0.373-25.243-0.797-37.754,0.949
	c-1.339-0.458-2.662-0.899-3.967-1.339c-12.772,28.738-9.669,20.636-12.681,32.617c-7.205,2.085-14.664,1.407-21.869-0.254
	c-39.377,70.367,32.446,65.938-86.272,62.945c-0.119,2.153-0.22,4.306-0.322,6.476c-3.051-0.526-6.103-1.034-9.154-1.458
	c-2.729,2.187-5.408,5.391-9.256,5.188c-3.153,0.814-4.289-2.492-5.916-4.408c-3.323-0.865-6.629-1.797-9.934-2.662
	c0.526,0.763,1.56,2.289,2.085,3.052c-0.729,0.915-2.153,2.729-2.865,3.645c-2.611-1.051-5.323-2.051-6.984-4.442
	c-0.848,1.051-1.661,2.102-2.475,3.17c-4.526-0.136-9.188-0.356-13.409,1.611c-1.577-1.339-3.136-2.662-4.696-3.984
	c-0.831,0.678-2.475,2.034-3.306,2.712c-7.256,0.068-14.528,0.237-21.75,0.882c-0.848-0.17-2.56-0.509-3.408-0.678
	c-4.442,0.509-8.815-0.56-13.003-1.899c-2.323,0.542-4.628,1.119-6.934,1.678c-0.61-1.119-1.797-3.34-2.407-4.459
	c-4.865,1.56-9.731,3.441-13.511,7.001c-24.615,3.412,4.148,4.025-48.705,3.865c-1.271,1.509-2.56,3.018-3.865,4.509
	c-1.492,9.188-0.441,18.495,1.153,27.599c2.204,12.528-2.187,24.836-2.509,37.33c-1.085,11.223,1.221,22.954-3.713,33.532
	c-4.442-0.373-8.849-0.831-13.257-1.237c-0.017,0.763-0.051,2.255-0.068,3.018c-3.018,0.424-6.001,0.882-9.002,1.356
	c-4.543-2.712-9.595-4.459-14.901-4.815c0.017,0.831,0.017,2.509,0.034,3.357c-4.001-0.983-8.019-1.814-12.036-2.662
	c0.017,0.712,0.051,2.136,0.068,2.848c-1.068,0.203-3.221,0.61-4.306,0.814c-2.356,1.458-4.73,2.865-7.137,4.238
	c-3.56-1.407-7.374-1.034-11.053-0.492c-1.238-1.577-2.475-3.119-3.679-4.679c-2.339,0.712-4.662,1.441-6.951,2.221
	c-3.034,4.95-8.12,7.968-13.443,9.917c-0.848-0.848-2.509-2.543-3.357-3.391c-3.475,2.306-7.052,4.611-9.324,8.222
	c-4.052,1-8.154,1.78-12.274,2.407c0.051,4.035-0.085,8.086-0.322,12.138c-5.137,3.102-9.782,7.052-12.664,12.392
	c-1.814,0.729-3.611,1.475-5.408,2.238c0.017,1.102,0.068,3.323,0.102,4.425c-0.932,0.797-2.763,2.39-3.679,3.17
	c0.458,0.526,1.373,1.543,1.831,2.068c-1.475,0.458-2.933,0.932-4.374,1.441c3.085,1.56,6.239,3.051,9.409,4.476
	c-2.356,3.408-5.476,6.12-9.053,8.154c2.102,3.78,4.984,8.12,0.322,11.477c0.729,0.746,1.475,1.526,2.221,2.306
	c-1.916,1.39-3.967,2.594-6.103,3.594c-7.225,6.043,1.442,11.73-12.342,22.361c-1.153-1.661-2.323-3.323-3.475-4.95
	c-1.034-3.95-1.763-7.951-2.187-12.003c-2.538,0.254-2.791,0.235-11.528,1.187c-0.068-2.034-0.119-4.035-0.17-6.035
	c-2.695-3.238-5.188-6.662-8.154-9.646c-0.763,0.424-2.272,1.271-3.034,1.678c-3.407-3.865-7.968-7.51-13.494-6.578
	c-1.221,1.763-2.373,3.56-3.475,5.408c-5.494-0.74-6.973-2.097-15.257-4.967c-1.407,1.661-2.814,3.34-4.221,5.018
	c-0.831-0.492-2.475-1.475-3.306-1.95c-2.187,1.305-4.408,2.594-6.612,3.899c-0.119,2.984-0.271,5.984-0.373,8.985
	c-1.254,1.238-2.509,2.492-3.747,3.764c-2.882,0.051-5.764,0.119-8.646,0.203c0.373,1.153,1.119,3.475,1.492,4.628
	c1.797,0.119,3.577,0.254,5.391,0.424c0.186,1.933,0.373,3.848,0.593,5.798c-1.051,1.475-2.102,2.95-3.187,4.425
	c-10.307-0.475-20.614,0.102-30.905,0.068c-0.22,0.593-0.661,1.763-0.882,2.339c-3.916,2.051-5.849,6.289-9.07,9.154
	c-3.984,3.492-4.781,9.053-6.747,13.732c-2.56,5.73-0.882,12.053-0.492,18.055c-2.913,7.902-3.663,35.845-3.391,38.059
	c-3.391,13.664-10.29,26.124-13.342,39.89c-1.221,1.153-2.441,2.305-3.662,3.475c-0.373-0.136-1.119-0.407-1.509-0.542
	c-3.899,1.492-7.985,1.441-11.731-0.458c-0.661,0.39-1.967,1.187-2.628,1.577c-3.272-1.594-6.764-2.136-10.087-0.373
	c-1.611,0.169-3.204,0.339-4.798,0.525c-2.373,2.068-4.764,4.136-7.052,6.307c-0.831,0.186-2.475,0.542-3.289,0.729
	c-1.288,6.103-2.153,12.358-1.543,18.614c-1.882,5.95-6.951,9.68-12.189,12.545c-2.102,4.696-2.441,9.85-3.204,14.885
	c-1.831,0.746-3.729,1.305-5.696,1.644c-5.665,19.023-3.864,14.606-12.748,19.513c-3.814,0.288-7.849,0.475-10.782,3.272
	c-1.627,0.203-3.255,0.424-4.865,0.678c-2.899,2.611-5.916,5.103-9.205,7.205c-1.848,2.729-3.374,5.662-4.848,8.629
	c-5.069,4.119-5.493,11.24-9.799,15.969c0.22,0.949,0.661,2.865,0.865,3.814c-0.661,1.051-2.017,3.153-2.695,4.204
	c0.186,0.933,0.576,2.78,0.763,3.713c-1.983,0.695-3.95,1.407-5.933,2.136c-0.102-3.272-0.186-6.527-0.39-9.748
	c-4.171,11.731-2.183,14-5.611,17.749c-3.102,8.476-9.239,15.613-10.917,24.598c-1.611,4.764-4.509,8.951-7.324,13.07
	c-2.187-1.153-4.136-2.679-6.103-4.12c0.186,1.051,0.576,3.153,0.763,4.204c-4.459-1.695-8.883-1.017-12.935,1.407
	c0.034,1.221,0.085,3.662,0.102,4.882c-1.458,0.305-2.933,0.627-4.391,0.966c-2.933-0.491-6.137-1.356-6.713,2.662
	c-1.17,0.051-3.509,0.17-4.679,0.22c0.915-1.119,2.729-3.357,3.645-4.476c-3.006,1.251-4.397,2.688-10.29,15.681
	c0.051,1.373,0.136,4.12,0.187,5.493c-3.052-0.169-6.086-0.271-9.138-0.39c-0.136-0.882-0.284-1.756-0.424-2.634
	c-0.235,3.319-0.588,6.627-1.032,9.923h2560C2566.717,1342.632,2559.715,1336.664,2554.596,1329.12z"/>
</svg>
