<?xml version="1.0" encoding="UTF-8" standalone="no"?>
<!-- Created with Inkscape (http://www.inkscape.org/) -->

<svg
   xmlns:dc="http://purl.org/dc/elements/1.1/"
   xmlns:cc="http://creativecommons.org/ns#"
   xmlns:rdf="http://www.w3.org/1999/02/22-rdf-syntax-ns#"
   xmlns:svg="http://www.w3.org/2000/svg"
   xmlns="http://www.w3.org/2000/svg"
   xmlns:sodipodi="http://sodipodi.sourceforge.net/DTD/sodipodi-0.dtd"
   xmlns:inkscape="http://www.inkscape.org/namespaces/inkscape"
   width="104.44773"
   height="69.589302"
   viewBox="0 0 27.635129 18.41217"
   version="1.1"
   id="svg14334"
   inkscape:version="0.92.0 r15299"
   sodipodi:docname="paris aeroport.svg">
  <defs
     id="defs14328">
    <clipPath
       id="clipPath6671"
       clipPathUnits="userSpaceOnUse">
      <path
         inkscape:connector-curvature="0"
         id="path6669"
         d="M 0,841.89 H 595.276 V 0 H 0 Z" />
    </clipPath>
    <clipPath
       id="clipPath6671-5"
       clipPathUnits="userSpaceOnUse">
      <path
         inkscape:connector-curvature="0"
         id="path6669-3"
         d="M 0,841.89 H 595.276 V 0 H 0 Z" />
    </clipPath>
  </defs>
  <sodipodi:namedview
     id="base"
     pagecolor="#ffffff"
     bordercolor="#666666"
     borderopacity="1.0"
     inkscape:pageopacity="0.0"
     inkscape:pageshadow="2"
     inkscape:zoom="7.7527078"
     inkscape:cx="51.723864"
     inkscape:cy="34.294648"
     inkscape:document-units="mm"
     inkscape:current-layer="layer1"
     showgrid="false"
     fit-margin-top="0"
     fit-margin-left="0"
     fit-margin-right="0"
     fit-margin-bottom="0"
     units="px"
     inkscape:window-width="1280"
     inkscape:window-height="744"
     inkscape:window-x="-4"
     inkscape:window-y="-4"
     inkscape:window-maximized="1" />
  <metadata
     id="metadata14331">
    <rdf:RDF>
      <cc:Work
         rdf:about="">
        <dc:format>image/svg+xml</dc:format>
        <dc:type
           rdf:resource="http://purl.org/dc/dcmitype/StillImage" />
        <dc:title></dc:title>
      </cc:Work>
    </rdf:RDF>
  </metadata>
  <g
     inkscape:label="Layer 1"
     inkscape:groupmode="layer"
     id="layer1"
     transform="translate(-86.381856,-160.59442)">
    <g
       id="g14773"
       transform="translate(0.13229262,-0.1322883)">
      <path
         d="m 113.7524,177.09729 v 0.25259 h -0.62689 v 1.63124 h -0.26952 v -1.63124 h -0.62406 v -0.25259 z"
         style="fill:#e74011;fill-opacity:1;fill-rule:nonzero;stroke:none;stroke-width:0.35277778"
         id="path6663"
         inkscape:connector-curvature="0" />
      <g
         transform="matrix(0.35277777,0,0,-0.35277777,111.04247,178.27465)"
         id="g6673">
        <path
           inkscape:connector-curvature="0"
           id="path6675"
           style="fill:#e74011;fill-opacity:1;fill-rule:nonzero;stroke:none"
           d="M 0,0 1.552,-2.002 H 2.477 L 0.812,0.145 c 0.828,0.201 1.343,0.724 1.343,1.56 0,1.005 -0.812,1.632 -2.018,1.632 h -2.284 v -5.339 h 0.748 V 0 Z m -1.399,2.622 h 1.511 c 0.789,0 1.247,-0.346 1.247,-0.933 0,-0.579 -0.458,-0.981 -1.254,-0.981 h -1.504 z" />
      </g>
      <g
         transform="matrix(0.35277777,0,0,-0.35277777,108.74465,177.07178)"
         id="g6677">
        <path
           inkscape:connector-curvature="0"
           id="path6679"
           style="fill:#e74011;fill-opacity:1;fill-rule:nonzero;stroke:none"
           d="m 0,0 c -1.56,0 -2.758,-1.198 -2.758,-2.75 0,-1.576 1.214,-2.734 2.742,-2.734 1.552,0 2.742,1.198 2.742,2.742 C 2.726,-1.166 1.52,0 0,0 m 0,-4.761 c -1.11,0 -1.962,0.853 -1.962,2.019 0,1.166 0.844,2.035 1.946,2.035 1.093,0 1.946,-0.869 1.946,-2.043 0,-1.166 -0.844,-2.011 -1.93,-2.011" />
      </g>
      <g
         transform="matrix(0.35277777,0,0,-0.35277777,105.91234,177.09729)"
         id="g6681">
        <path
           inkscape:connector-curvature="0"
           id="path6683"
           style="fill:#e74011;fill-opacity:1;fill-rule:nonzero;stroke:none"
           d="m 0,0 v -5.34 h 0.74 v 1.818 h 1.206 c 1.19,0 2.123,0.579 2.123,1.785 C 4.069,-0.651 3.232,0 2.002,0 Z m 0.74,-2.83 v 2.114 h 1.222 c 0.82,0 1.319,-0.378 1.319,-1.045 0,-0.651 -0.499,-1.069 -1.343,-1.069 z" />
      </g>
      <g
         transform="matrix(0.35277777,0,0,-0.35277777,104.3677,177.07178)"
         id="g6685">
        <path
           inkscape:connector-curvature="0"
           id="path6687"
           style="fill:#e74011;fill-opacity:1;fill-rule:nonzero;stroke:none"
           d="m 0,0 c -1.56,0 -2.758,-1.198 -2.758,-2.75 0,-1.576 1.214,-2.734 2.742,-2.734 1.552,0 2.742,1.198 2.742,2.742 C 2.726,-1.166 1.52,0 0,0 m 0,-4.761 c -1.11,0 -1.962,0.853 -1.962,2.019 0,1.166 0.844,2.035 1.946,2.035 1.093,0 1.946,-0.869 1.946,-2.043 0,-1.166 -0.844,-2.011 -1.93,-2.011" />
      </g>
      <g
         transform="matrix(0.35277777,0,0,-0.35277777,102.18118,178.27465)"
         id="g6689">
        <path
           inkscape:connector-curvature="0"
           id="path6691"
           style="fill:#e74011;fill-opacity:1;fill-rule:nonzero;stroke:none"
           d="M 0,0 1.552,-2.002 H 2.477 L 0.812,0.145 c 0.828,0.201 1.343,0.724 1.343,1.56 0,1.005 -0.812,1.632 -2.018,1.632 h -2.284 v -5.339 h 0.748 V 0 Z m -1.399,2.622 h 1.512 c 0.788,0 1.246,-0.346 1.246,-0.933 0,-0.579 -0.458,-0.981 -1.254,-0.981 h -1.504 z" />
      </g>
      <g
         transform="matrix(0.35277777,0,0,-0.35277777,99.653461,178.15259)"
         id="g6693">
        <path
           inkscape:connector-curvature="0"
           id="path6695"
           style="fill:#e74011;fill-opacity:1;fill-rule:nonzero;stroke:none"
           d="M 0,0 H 2.779 V 0.715 H 0 v 1.561 h 3.107 v 0.715 h -3.905 v -5.339 h 3.941 v 0.717 H 0 Z m 0.608,3.651 0.91,0.91 H 2.433 L 1.522,3.651 Z" />
      </g>
      <g
         transform="matrix(0.35277777,0,0,-0.35277777,97.168318,178.83338)"
         id="g6697">
        <path
           inkscape:connector-curvature="0"
           id="path6699"
           style="fill:#e74011;fill-opacity:1;fill-rule:nonzero;stroke:none"
           d="M 0,0 C 0.362,0.82 0.997,1.214 1.793,1.214 2.589,1.214 3.233,0.82 3.595,0 L 3.779,-0.418 H 4.672 L 2.244,4.953 H 1.336 l -2.43,-5.371 h 0.909 z M 2.879,1.624 C 2.565,1.825 2.171,1.93 1.793,1.93 1.415,1.93 1.021,1.833 0.708,1.624 l 1.085,2.564 z" />
      </g>
      <g
         transform="matrix(0.35277777,0,0,-0.35277777,96.049131,178.4305)"
         id="g6701">
        <path
           inkscape:connector-curvature="0"
           id="path6703"
           style="fill:#2a2a7e;fill-opacity:1;fill-rule:nonzero;stroke:none"
           d="m 0,0 c 0,0.78 -0.547,1.206 -1.335,1.463 l -0.764,0.25 c -0.579,0.184 -0.796,0.37 -0.796,0.643 0,0.321 0.338,0.507 0.813,0.507 0.45,0 0.884,-0.161 1.318,-0.459 l 0.555,0.82 c -0.571,0.419 -1.166,0.627 -1.882,0.627 -1.133,0 -1.97,-0.579 -1.97,-1.543 0,-0.821 0.611,-1.287 1.416,-1.544 l 0.788,-0.258 c 0.522,-0.168 0.699,-0.346 0.699,-0.603 0,-0.353 -0.362,-0.555 -0.86,-0.555 -0.515,0 -1.038,0.185 -1.52,0.611 l -0.651,-0.82 c 0.594,-0.498 1.326,-0.772 2.155,-0.772 C -0.796,-1.633 0,-0.973 0,0" />
      </g>
      <path
         inkscape:connector-curvature="0"
         id="path6705"
         style="fill:#2a2a7e;fill-opacity:1;fill-rule:nonzero;stroke:none;stroke-width:0.35277778"
         d="m 93.373699,178.98101 h 0.411339 v -1.88383 h -0.411339 z" />
      <g
         transform="matrix(0.35277777,0,0,-0.35277777,91.71388,178.36542)"
         id="g6707">
        <path
           inkscape:connector-curvature="0"
           id="path6709"
           style="fill:#2a2a7e;fill-opacity:1;fill-rule:nonzero;stroke:none"
           d="M 0,0 1.303,-1.745 H 2.67 L 1.158,0.193 c 0.692,0.298 1.19,0.877 1.19,1.649 0,1.093 -0.836,1.753 -2.107,1.753 h -2.396 v -5.34 h 1.134 V 0 Z m -1.021,2.63 h 1.182 c 0.635,0 1.021,-0.306 1.021,-0.828 0,-0.515 -0.394,-0.829 -1.013,-0.829 h -1.19 z" />
      </g>
      <g
         transform="matrix(0.35277777,0,0,-0.35277777,89.89584,178.98098)"
         id="g6711">
        <path
           inkscape:connector-curvature="0"
           id="path6713"
           style="fill:#2a2a7e;fill-opacity:1;fill-rule:nonzero;stroke:none"
           d="M 0,0 H 1.23 L -1.103,5.372 H -2.45 L -4.744,0 h 1.19 l 0.072,0.177 c 0.306,0.748 0.909,1.15 1.705,1.15 0.796,0 1.399,-0.402 1.705,-1.15 z m -1.777,2.163 c -0.305,0 -0.692,-0.064 -1.013,-0.289 l 1.013,2.541 1.013,-2.541 c -0.321,0.225 -0.707,0.289 -1.013,0.289" />
      </g>
      <g
         transform="matrix(0.35277777,0,0,-0.35277777,87.90515,177.74403)"
         id="g6715">
        <path
           inkscape:connector-curvature="0"
           id="path6717"
           style="fill:#2a2a7e;fill-opacity:1;fill-rule:nonzero;stroke:none"
           d="m 0,0 c 0,1.134 -0.909,1.833 -2.171,1.833 h -2.147 v -5.339 h 1.134 v 1.64 h 1.013 C -0.909,-1.866 0,-1.158 0,0 m -1.174,-0.032 c 0,-0.539 -0.41,-0.861 -1.061,-0.861 h -0.949 v 1.761 h 0.949 c 0.659,0 1.061,-0.329 1.061,-0.9" />
      </g>
      <g
         transform="matrix(0.35277777,0,0,-0.35277777,99.933602,160.859)"
         id="g6719">
        <path
           inkscape:connector-curvature="0"
           id="path6721"
           style="fill:#2a2a7e;fill-opacity:1;fill-rule:nonzero;stroke:none"
           d="m 0,0 v -36.664 c 0.253,0.006 0.513,0.006 0.76,0 V 0 Z" />
      </g>
      <g
         transform="matrix(0.35277777,0,0,-0.35277777,98.680006,165.4824)"
         id="g6723">
        <path
           inkscape:connector-curvature="0"
           id="path6725"
           style="fill:#2a2a7e;fill-opacity:1;fill-rule:nonzero;stroke:none"
           d="m 0,0 -0.726,-0.447 2.233,-23.298 c 0.24,0.04 0.533,0.08 0.753,0.1 z" />
      </g>
      <g
         transform="matrix(0.35277777,0,0,-0.35277777,97.819405,169.05)"
         id="g6727">
        <path
           inkscape:connector-curvature="0"
           id="path6729"
           style="fill:#2a2a7e;fill-opacity:1;fill-rule:nonzero;stroke:none"
           d="m 0,0 -0.673,-0.486 2.686,-13.586 c 0.22,0.067 0.493,0.14 0.733,0.2 z" />
      </g>
      <g
         transform="matrix(0.35277777,0,0,-0.35277777,97.118471,170.68672)"
         id="g6731">
        <path
           inkscape:connector-curvature="0"
           id="path6733"
           style="fill:#2a2a7e;fill-opacity:1;fill-rule:nonzero;stroke:none"
           d="m 0,0 -0.633,-0.533 2.827,-9.58 c 0.2,0.094 0.513,0.221 0.706,0.3 z" />
      </g>
      <g
         transform="matrix(0.35277777,0,0,-0.35277777,96.518854,171.7968)"
         id="g6735">
        <path
           inkscape:connector-curvature="0"
           id="path6737"
           style="fill:#2a2a7e;fill-opacity:1;fill-rule:nonzero;stroke:none"
           d="M 0,0 -0.566,-0.6 2.253,-7.853 C 2.46,-7.719 2.7,-7.579 2.907,-7.466 Z" />
      </g>
      <g
         transform="matrix(0.35277777,0,0,-0.35277777,95.947531,172.66922)"
         id="g6739">
        <path
           inkscape:connector-curvature="0"
           id="path6741"
           style="fill:#2a2a7e;fill-opacity:1;fill-rule:nonzero;stroke:none"
           d="M 0,0 -0.547,-0.56 2.379,-6.473 C 2.573,-6.306 2.806,-6.126 2.972,-6 Z" />
      </g>
      <g
         transform="matrix(0.35277777,0,0,-0.35277777,95.38545,173.42166)"
         id="g6743">
        <path
           inkscape:connector-curvature="0"
           id="path6745"
           style="fill:#2a2a7e;fill-opacity:1;fill-rule:nonzero;stroke:none"
           d="m 0,0 -0.527,-0.54 3.213,-5.08 c 0.154,0.18 0.367,0.407 0.52,0.56 z" />
      </g>
      <g
         transform="matrix(0.35277777,0,0,-0.35277777,100.65789,173.82376)"
         id="g6747">
        <path
           inkscape:connector-curvature="0"
           id="path6749"
           style="fill:#2a2a7e;fill-opacity:1;fill-rule:nonzero;stroke:none"
           d="M 0,0 C 0.22,-0.02 0.513,-0.06 0.754,-0.1 L 2.986,23.198 2.26,23.645 Z" />
      </g>
      <g
         transform="matrix(0.35277777,0,0,-0.35277777,101.34697,173.94384)"
         id="g6751">
        <path
           inkscape:connector-curvature="0"
           id="path6753"
           style="fill:#2a2a7e;fill-opacity:1;fill-rule:nonzero;stroke:none"
           d="M 0,0 C 0.24,-0.06 0.513,-0.133 0.733,-0.2 L 3.419,13.386 2.747,13.872 Z" />
      </g>
      <g
         transform="matrix(0.35277777,0,0,-0.35277777,101.99368,174.14838)"
         id="g6755">
        <path
           inkscape:connector-curvature="0"
           id="path6757"
           style="fill:#2a2a7e;fill-opacity:1;fill-rule:nonzero;stroke:none"
           d="M 0,0 C 0.193,-0.08 0.506,-0.207 0.706,-0.3 L 3.533,9.279 2.9,9.813 Z" />
      </g>
      <g
         transform="matrix(0.35277777,0,0,-0.35277777,102.59094,174.43075)"
         id="g6759">
        <path
           inkscape:connector-curvature="0"
           id="path6761"
           style="fill:#2a2a7e;fill-opacity:1;fill-rule:nonzero;stroke:none"
           d="M 0,0 C 0.207,-0.113 0.447,-0.253 0.653,-0.386 L 3.473,6.867 2.906,7.466 Z" />
      </g>
      <g
         transform="matrix(0.35277777,0,0,-0.35277777,103.13901,174.78575)"
         id="g6763">
        <path
           inkscape:connector-curvature="0"
           id="path6765"
           style="fill:#2a2a7e;fill-opacity:1;fill-rule:nonzero;stroke:none"
           d="M 0,0 C 0.166,-0.126 0.4,-0.307 0.593,-0.473 L 3.519,5.44 2.973,6 Z" />
      </g>
      <g
         transform="matrix(0.35277777,0,0,-0.35277777,103.61865,175.20665)"
         id="g6767">
        <path
           inkscape:connector-curvature="0"
           id="path6769"
           style="fill:#2a2a7e;fill-opacity:1;fill-rule:nonzero;stroke:none"
           d="M 0,0 C 0.153,-0.153 0.366,-0.38 0.52,-0.56 L 3.733,4.52 3.206,5.06 Z" />
      </g>
    </g>
  </g>
</svg>
