<?xml version="1.0" encoding="UTF-8" standalone="no"?>
<svg
   xmlns:dc="http://purl.org/dc/elements/1.1/"
   xmlns:cc="http://creativecommons.org/ns#"
   xmlns:rdf="http://www.w3.org/1999/02/22-rdf-syntax-ns#"
   xmlns:svg="http://www.w3.org/2000/svg"
   xmlns="http://www.w3.org/2000/svg"
   xmlns:xlink="http://www.w3.org/1999/xlink"
   viewBox="0 0 600 108.38589"
   height="108.38589"
   width="600"
   xml:space="preserve"
   id="svg833"
   version="1.1"><metadata
     id="metadata839"><rdf:RDF><cc:Work
         rdf:about=""><dc:format>image/svg+xml</dc:format><dc:type
           rdf:resource="http://purl.org/dc/dcmitype/StillImage" /><dc:title></dc:title></cc:Work></rdf:RDF></metadata><defs
     id="defs837" /><g
     transform="matrix(1.3333333,0,0,-1.3333333,-285.47067,1090.592)"
     id="g841"><g
       id="g1612"><path
         d="m 326.54756,786.06189 -11.05077,-25.45397 h -1.06788 l -11.09702,25.45397 c -1.42584,3.3102 -2.13977,4.47863 -6.21216,4.47863 v 1.47813 h 16.69983 v -1.47813 c -4.48064,0 -4.99145,-1.16843 -3.82101,-3.86727 l 7.1292,-16.54699 7.17747,16.54699 c 1.17044,2.74711 0.40825,3.86727 -3.81699,3.86727 v 1.47813 H 332.812 v -1.47813 c -3.51533,0 -4.68777,-0.86476 -6.26444,-4.47863"
         style="fill:#212a80;fill-opacity:1;fill-rule:nonzero;stroke:none;stroke-width:2.01106"
         id="path915" /><path
         d="m 342.36313,762.94899 c 4.22523,0 4.83458,0.86677 4.83458,5.95676 v 15.68223 c 0,5.08798 -0.60935,5.95274 -4.83458,5.95274 v 1.47813 h 26.22019 l 0.40623,-7.17948 h -1.47612 l -0.2554,1.0196 c -0.71594,2.69683 -1.22072,3.86928 -5.90648,3.86928 h -7.78883 V 777.8449 h 2.79939 c 5.09401,0 5.90648,0.66164 5.90648,4.88889 h 1.47612 v -12.06636 h -1.47612 c 0,4.27552 -0.81247,4.88688 -5.90648,4.88688 h -2.79939 v -5.83408 c 0,-5.09201 0.66364,-5.95877 4.88687,-5.95877 h 3.83107 c 4.68576,0 5.90044,1.17244 6.56007,3.87129 l 0.25742,1.01759 h 1.66314 l -1.06385,-7.17747 h -27.33431 z"
         style="fill:#212a80;fill-opacity:1;fill-rule:nonzero;stroke:none;stroke-width:2.01106"
         id="path917" /><path
         d="m 601.60373,762.94899 c 4.22724,0 4.8366,0.86677 4.8366,5.95676 v 15.68223 c 0,5.08798 -0.60936,5.95274 -4.8366,5.95274 v 1.47813 h 26.22019 l 0.40623,-7.17948 h -1.47411 l -0.25942,1.0196 c -0.71192,2.69683 -1.2187,3.86928 -5.90447,3.86928 h -7.78481 V 777.8449 h 2.79738 c 5.08798,0 5.90447,0.66164 5.90447,4.88889 h 1.47813 v -12.06636 h -1.47813 c 0,4.27552 -0.81649,4.88688 -5.90447,4.88688 h -2.79738 v -5.83408 c 0,-5.09201 0.65761,-5.95877 4.88486,-5.95877 h 3.83107 c 4.68376,0 5.90246,1.17244 6.5641,3.87129 l 0.25138,1.01759 h 1.66113 l -1.05983,-7.17747 h -27.33632 z"
         style="fill:#212a80;fill-opacity:1;fill-rule:nonzero;stroke:none;stroke-width:2.01106"
         id="path919" /><path
         d="m 462.85674,766.81766 c -1.17245,-2.74911 -0.41026,-3.86927 3.81699,-3.86927 v -1.47612 H 454.358 v 1.47612 c 3.50729,0 4.67773,0.86676 6.25641,4.48064 l 11.05077,25.45397 h 1.06787 l 11.08496,-25.45397 c 1.42584,-3.25792 2.13976,-4.48064 6.21417,-4.48064 v -1.47612 h -16.68777 v 1.47612 c 4.47662,0 4.98341,1.17043 3.81498,3.86927 l -2.13775,4.8366 h -10.07742 z m 7.12719,16.44443 -4.02011,-9.31522 h 8.09251 z"
         style="fill:#212a80;fill-opacity:1;fill-rule:nonzero;stroke:none;stroke-width:2.01106"
         id="path921" /><path
         d="m 498.70769,761.47187 v 1.47611 c 4.22724,0 4.8366,0.86677 4.8366,5.95676 v 15.68224 c 0,5.08999 -0.60936,5.95475 -4.8366,5.95475 v 1.47812 h 16.08847 v -1.47812 c -4.22725,0 -4.88888,-0.86476 -4.88888,-5.95475 v -15.68224 c 0,-5.08999 0.66163,-5.95676 4.88888,-5.95676 v -1.47611 z"
         style="fill:#212a80;fill-opacity:1;fill-rule:nonzero;stroke:none;stroke-width:2.01106"
         id="path923" /><path
         d="m 527.90545,790.54112 v 1.47813 h 16.0925 v -1.47813 c -4.22725,0 -4.88889,-0.86475 -4.88889,-5.95474 v -14.86575 c 0,-5.092 0.66164,-5.95877 4.88889,-5.95877 h 4.72598 c 4.68577,0 5.24284,1.17245 5.9085,3.86928 l 0.2554,1.0196 h 1.47411 l -0.40624,-7.17948 h -28.05025 v 1.47813 c 4.22725,0 4.84062,0.86476 4.84062,5.95475 v 15.68224 c 0,5.08999 -0.61337,5.95474 -4.84062,5.95474"
         style="fill:#212a80;fill-opacity:1;fill-rule:nonzero;stroke:none;stroke-width:2.01106"
         id="path925" /><path
         d="m 564.94453,790.54112 v 1.47813 h 16.08445 v -1.47813 c -4.22322,0 -4.88486,-0.86475 -4.88486,-5.95474 v -14.86575 c 0,-5.092 0.66164,-5.95877 4.88486,-5.95877 h 4.73404 c 4.68577,0 5.24685,1.17245 5.90849,3.86928 l 0.25138,1.0196 h 1.47813 l -0.41026,-7.17948 h -28.04623 v 1.47813 c 4.22725,0 4.8366,0.86476 4.8366,5.95475 v 15.68224 c 0,5.08999 -0.60935,5.95474 -4.8366,5.95474"
         style="fill:#212a80;fill-opacity:1;fill-rule:nonzero;stroke:none;stroke-width:2.01106"
         id="path927" /><path
         d="m 425.32796,771.07186 c 0,0 0.31373,0.0161 1.818,0.0161 0.81247,-4.80241 2.4012,-8.24333 9.456,-8.24333 3.05681,0 5.26696,2.1277 5.26696,5.4379 0,2.39919 -1.4198,3.8552 -3.89743,5.05982 l -5.05781,2.50377 c -4.42232,2.15586 -7.1091,3.86526 -7.1091,8.82654 0,4.10859 3.79085,8.16088 11.30216,8.16088 3.70236,0 6.61638,-1.34942 7.98189,-2.38512 0,-2.63046 0.0281,-7.13322 0.0281,-7.13322 0,0 -0.44645,0.0201 -1.82,0.0201 0,3.12719 -1.35345,7.29411 -6.11362,7.29411 -3.55153,0 -6.1639,-1.80191 -6.1639,-4.16692 0,-2.51784 1.36752,-3.6018 4.21116,-4.95122 l 5.05781,-2.45551 c 3.73856,-1.85621 6.79537,-4.911 6.79537,-8.87078 0,-5.46405 -4.78632,-9.8381 -11.02463,-9.72749 -4.63549,0.0804 -8.46253,1.62694 -10.41728,2.8195 -0.0382,3.00855 -0.31373,7.79487 -0.31373,7.79487"
         style="fill:#212a80;fill-opacity:1;fill-rule:nonzero;stroke:none;stroke-width:2.01106"
         id="path929" /><path
         d="m 642.34336,771.07186 c 0,0 0.31574,0.0161 1.82001,0.0161 0.81247,-4.80241 2.39919,-8.24333 9.45399,-8.24333 3.05882,0 5.26897,2.1277 5.26897,5.4379 0,2.39919 -1.42182,3.8552 -3.89944,5.05982 l -5.05379,2.50377 c -4.42634,2.15586 -7.11513,3.86526 -7.11513,8.82654 0,4.10859 3.79286,8.16088 11.30819,8.16088 3.70035,0 6.61035,-1.34942 7.97988,-2.38512 0,-2.63046 0.0261,-7.13322 0.0261,-7.13322 0,0 -0.44846,0.0201 -1.81598,0.0201 0,3.12719 -1.35144,7.29411 -6.11563,7.29411 -3.54952,0 -6.16792,-1.80191 -6.16792,-4.16692 0,-2.51784 1.36953,-3.6018 4.21719,-4.95122 l 5.05781,-2.45551 c 3.73856,-1.85621 6.79537,-4.911 6.79537,-8.87078 0,-5.46405 -4.79235,-9.8381 -11.02664,-9.72749 -4.6375,0.0804 -8.46454,1.62694 -10.41728,2.8195 -0.0402,3.00855 -0.31574,7.79487 -0.31574,7.79487"
         style="fill:#212a80;fill-opacity:1;fill-rule:nonzero;stroke:none;stroke-width:2.01106"
         id="path931" /><path
         d="m 405.30405,772.91761 c 6.04323,-9.18049 6.18803,-9.53644 9.12015,-9.96078 0,0 -0.27954,-0.74811 -0.55304,-1.48014 -5.13423,0 -7.33835,0.0201 -10.03116,4.17697 -1.15435,1.7818 -2.5098,3.92559 -4.69583,7.33836 -0.84866,1.3273 -1.95676,1.9286 -3.16942,1.9286 -1.41177,0 -2.64254,-0.0201 -2.64254,-0.0201 v -5.97284 c 0,-5.10407 0.66365,-5.97084 4.89894,-5.97084 v -1.48014 h -15.30818 v 1.48014 c 4.23529,0 4.84665,0.86677 4.84665,5.97084 v 15.72246 c 0,5.10406 -0.61136,5.97083 -4.84665,5.97083 v 1.48014 h 17.10004 c 6.32679,0 10.30667,-3.87732 10.30667,-8.62543 0,-3.45299 -2.56812,-7.40874 -7.66213,-8.22322 0.74208,-0.29161 1.8904,-1.20262 2.6365,-2.33484 m -1.15033,10.55806 c 0,3.47109 -2.09351,6.3288 -6.53192,6.3288 h -4.28959 v -12.60733 h 4.28959 c 4.43841,0 6.53192,2.80744 6.53192,6.27853"
         style="fill:#212a80;fill-opacity:1;fill-rule:nonzero;stroke:none;stroke-width:2.01106"
         id="path933" /></g><g
       id="g1841"><path
         id="path1791"
         d="m 219.59454,777.60977 v -13.1844 c 0,0 -0.93314,-16.33181 23.51129,-27.77072 v 0.002 c 0.002,-0.002 0.004,-0.002 0.006,-0.002 v 0.0101 c 24.44442,11.43689 23.5133,27.7687 23.5133,27.7687 l -0.002,13.17632 z"
         style="fill:#212a80;fill-opacity:1;fill-rule:nonzero;stroke:none;stroke-width:2.01106" /><path
         style="fill:#212a80;fill-opacity:1;fill-rule:nonzero;stroke:none;stroke-width:2.01106"
         d="m 243.09989,800.59431 -0.0121,0.002 c -6.26043,0 -12.1287,-1.26697 -16.42834,-2.53394 -4.01006,-1.1825 -6.65058,-2.36098 -6.99246,-2.51583 -0.0402,-0.0704 -0.17094,0.0744 -0.17094,-0.32378 0,-0.21116 0.0362,-0.46858 0.14882,-0.76622 1.25289,0.56712 11.63599,5.10206 23.44292,5.10206 h 0.0201 c 11.82302,-0.006 22.22421,-4.50477 23.46705,-5.06184 0.11463,0.29563 0.15284,0.54098 0.15284,0.74209 0,0.37003 -0.12067,0.20713 -0.16692,0.2735 -0.61337,0.26948 -11.27802,5.07792 -23.46102,5.08195"
         id="path1650" /><path
         id="path1616"
         style="fill:#dab859;fill-opacity:1;fill-rule:nonzero;stroke:none;stroke-width:2.68141"
         d="m 38.646484,24.830078 c -8.347239,0 -16.171443,1.689613 -21.904296,3.378906 -5.346747,1.576667 -8.9640824,3.338456 -9.4199224,3.544922 V 53.208999 H 70.027344 l -0.0039,-21.513687 C 69.205611,31.336006 54.906109,24.837405 38.662109,24.832031 Z"
         transform="matrix(0.75000002,0,0,-0.75000002,214.10301,817.94402)" /><g
         id="g1776"><g
           style="fill:#dab859;fill-opacity:1"
           id="g1748"><path
             style="fill:#dab859;fill-opacity:1;fill-rule:nonzero;stroke:none;stroke-width:2.01106"
             d="m 235.305,806.19299 c 0,0.0141 -0.002,0.0282 -0.004,0.0402 -0.0201,0.0985 -0.10659,0.16691 -0.20312,0.16691 -0.0101,0 -0.0241,0 -0.0362,-0.002 l -4.46053,-0.86878 c -0.0925,-0.0141 -0.16289,-0.10055 -0.16289,-0.19909 0,-0.008 0.002,-0.0201 0.004,-0.0382 0.0221,-0.10055 0.10055,-0.1629 0.19909,-0.16491 0.0101,0 0.0282,0.002 0.0422,0.004 h -0.002 l 4.45651,0.86275 c 0.0985,0.0181 0.16692,0.1086 0.16692,0.19909"
             id="path1668" /><path
             style="fill:#dab859;fill-opacity:1;fill-rule:nonzero;stroke:none;stroke-width:2.01106"
             d="m 229.2859,805.84106 c 0,0 -0.60131,0.26747 -0.72599,0.90498 0,0 -0.15485,0.73805 0.6556,0.89492 0,0 0.9452,0.29361 1.83409,-1.75566 l 0.50477,0.0985 c -0.14881,0.74208 -1.08396,4.69583 -3.82503,4.16491 0,0 -1.53042,-0.26144 -1.50628,-1.97084 0,0 0.16691,-2.43942 3.06284,-2.33685"
             id="path1662" /><path
             style="fill:#dab859;fill-opacity:1;fill-rule:nonzero;stroke:none;stroke-width:2.01106"
             d="m 232.29442,806.12672 0.47059,0.0925 c -0.16893,0.48667 -1.2368,3.61387 -1.44997,7.18149 l 0.0241,0.002 c 1.24485,-3.26194 1.43992,-6.64856 1.46405,-7.17546 l 0.47059,0.0925 c 0.0181,0.39015 0.10055,1.6551 0.41227,4.15485 0.53494,4.28758 -2.99849,6.59225 -2.99849,6.59225 l -0.0101,-0.002 c 0,0 -2.41528,-3.455 -0.31775,-7.23378 1.22474,-2.20613 1.77376,-3.35042 1.93464,-3.70437"
             id="path1654" /><path
             style="fill:#dab859;fill-opacity:1;fill-rule:nonzero;stroke:none;stroke-width:2.01106"
             d="m 234.51866,806.5591 c 0.0583,2.23428 1.04373,2.31271 1.04373,2.31271 0.81448,0.15687 0.9452,-0.58521 0.9452,-0.58521 0.12469,-0.63751 -0.33786,-1.11212 -0.33786,-1.11212 2.72901,0.99145 1.96883,3.31423 1.96883,3.31423 -0.61538,1.59074 -2.13172,1.26696 -2.13172,1.26696 -2.74107,-0.53293 -2.12971,-4.55102 -1.99095,-5.29512 z"
             id="path1652" /></g><g
           style="fill:#dab859;fill-opacity:1"
           id="g1754"><path
             style="fill:#dab859;fill-opacity:1;fill-rule:nonzero;stroke:none;stroke-width:2.01106"
             d="m 255.5805,805.1291 c 0.0965,0 0.17898,0.0644 0.19909,0.16491 0.004,0.0121 0.004,0.0261 0.004,0.0402 0,0.0945 -0.0704,0.181 -0.1649,0.19709 l -4.45651,0.86676 c -0.0121,0.002 -0.0282,0.004 -0.0382,0.004 -0.0985,-0.002 -0.18301,-0.0684 -0.20111,-0.16892 -0.004,-0.0141 -0.006,-0.0261 -0.006,-0.0382 0,-0.0905 0.0684,-0.181 0.16692,-0.1991 l 4.45651,-0.86476 c 0.0141,-0.002 0.0282,-0.002 0.0402,-0.002"
             id="path1664" /><path
             style="fill:#dab859;fill-opacity:1;fill-rule:nonzero;stroke:none;stroke-width:2.01106"
             d="m 248.08522,810.49073 c 0,0 -0.76018,-2.32479 1.97084,-3.31423 0,0 -0.46456,0.47461 -0.33987,1.11011 0,0 0.13072,0.74409 0.94319,0.58723 0,0 0.98743,-0.0784 1.04575,-2.31272 l 0.50276,-0.0965 c 0.13876,0.74007 0.75013,4.76017 -1.99095,5.29109 0,0 -1.51835,0.3258 -2.13172,-1.26495"
             id="path1658" /><path
             style="fill:#dab859;fill-opacity:1;fill-rule:nonzero;stroke:none;stroke-width:2.01106"
             d="m 252.94793,806.31976 0.4726,-0.0925 c 0.0241,0.52891 0.21921,3.91352 1.46606,7.17747 l 0.0221,-0.002 c -0.21518,-3.56762 -1.27903,-6.69683 -1.44997,-7.18149 l 0.46858,-0.0925 c 0.1649,0.35395 0.7099,1.49824 1.93665,3.70437 2.09954,3.77878 -0.31976,7.23378 -0.31976,7.23378 h -0.008 c 0,0 -3.53142,-2.30266 -2.99446,-6.59024 0.3097,-2.50176 0.38612,-3.7647 0.40623,-4.15686"
             id="path1656" /><path
             style="fill:#dab859;fill-opacity:1;fill-rule:nonzero;stroke:none;stroke-width:2.01106"
             d="m 254.66952,805.98591 0.50276,-0.0985 c 0.8909,2.04927 1.8361,1.75566 1.8361,1.75566 0.81046,-0.15687 0.6556,-0.89693 0.6556,-0.89693 -0.12267,-0.6355 -0.728,-0.90297 -0.728,-0.90297 2.89794,-0.10256 3.06687,2.33685 3.06687,2.33685 0.0201,1.70739 -1.50629,1.96883 -1.50629,1.96883 -2.74308,0.53293 -3.67822,-3.42283 -3.82704,-4.1629"
             id="path1648" /></g><g
           style="fill:#dab859;fill-opacity:1"
           id="g1734"><g
             style="fill:#dab859;fill-opacity:1"
             id="g1729"><path
               id="path1660"
               d="m 219.6308,796.20809 c 0.42233,0.18904 1.70337,0.74409 3.65812,1.43388 l -0.78632,2.37908 c 0,0 0.76822,1.01157 2.2001,0.70589 0.0141,-0.004 0.59326,-1.77577 0.78431,-2.35697 0.35395,0.11061 0.71594,0.22122 1.09401,0.33384 0.77426,0.22725 1.63701,0.46455 2.56411,0.69985 l -1.25289,3.91151 c -0.23731,0.0583 -0.95526,0.26144 -1.29915,0.81247 0.0241,0.006 -2.08144,6.32679 -2.08144,6.32679 l -0.0302,0.0824 0.0684,0.0563 c 0.44645,0.39618 0.77828,0.86878 0.95123,1.14027 -1.09402,-0.24736 -5.6189,-1.3273 -10.15384,-3.3283 0.27954,-0.14882 0.79236,-0.37004 1.44394,-0.38814 h 0.0965 l 0.0241,-0.0925 c 0.004,0 1.81599,-5.61086 2.00503,-6.20814 0.0241,-0.0784 0.0382,-0.16089 0.0382,-0.24133 -0.0141,-0.54902 -0.47059,-1.10407 -0.62946,-1.28507 z"
               style="fill:#dab859;fill-opacity:1;fill-rule:nonzero;stroke:none;stroke-width:2.01106" /><path
               id="path887"
               style="fill:#dab859;fill-opacity:1;fill-rule:nonzero;stroke:none;stroke-width:2.01106"
               d="m 224.54443,815.07765 c -0.0543,0.004 -0.12871,0.008 -0.22524,0.008 -0.21116,0 -0.50076,-0.0181 -0.78231,-0.0945 -0.4002,-0.10458 -0.75615,-0.29161 -0.91704,-0.3821 l 0.4364,-1.34741 -0.0905,-0.0543 c -0.008,-0.002 -0.42634,-0.24133 -1.01156,-0.43037 -0.54097,-0.18301 -1.01357,-0.19708 -1.15032,-0.19708 h -0.0322 -0.0985 l -0.44043,1.35545 c -0.0442,0.008 -0.12267,0.0181 -0.23127,0.0181 -0.18904,0 -0.47461,-0.0302 -0.84464,-0.14882 -0.53494,-0.17496 -0.7823,-0.39819 -0.86878,-0.49271 l 0.44444,-1.3635 -0.0744,-0.0583 c -0.008,-0.004 -0.43842,-0.31774 -1.02967,-0.51081 -0.57516,-0.18702 -1.1101,-0.27551 -1.1101,-0.27551 l -0.11664,-0.0201 -0.45249,1.4178 c -0.19709,-0.0382 -0.61941,-0.13273 -0.96129,-0.28558 -0.38813,-0.16289 -0.74409,-0.44645 -0.88486,-0.5651 l 0.88888,-2.73504 c 4.82454,2.1458 9.65108,3.24786 10.44142,3.42081 z" /></g></g><g
           style="fill:#dab859;fill-opacity:1"
           id="g1738"><path
             style="fill:#dab859;fill-opacity:1;fill-rule:nonzero;stroke:none;stroke-width:2.01106"
             d="m 247.09986,812.97624 v 0.0945 l 0.0865,0.0281 c 0.63549,0.22725 1.05982,0.62343 1.26495,0.85269 -1.89844,0.19708 -3.75666,0.26546 -5.38762,0.26546 -2.63851,0 -4.67371,-0.16893 -5.33736,-0.23328 0.24334,-0.20312 0.71393,-0.5631 1.26898,-0.80443 l 0.0804,-0.0342 v -0.0865 c 0,0 -0.0121,-4.7099 -0.0121,-6.55203 -0.10659,-0.68376 -0.77426,-1.14228 -0.99145,-1.27903 v -4.23932 c 1.24484,0.12469 2.52589,0.21318 3.83106,0.24334 -0.004,0.68577 -0.0121,2.52589 0.002,2.53192 1.26897,0.73404 2.3107,0.0141 2.3107,0.0141 l 0.004,-2.546 c 1.32931,-0.0302 2.63449,-0.11664 3.91151,-0.24736 v 4.22725 c -0.2373,0.14278 -1.00955,0.62141 -1.03569,1.26696 z"
             id="path1666" /><path
             d="m 248.57155,814.59359 v 2.86375 c -0.17094,0.0704 -0.6013,0.22926 -1.02161,0.26345 -0.11463,0.0141 -0.2353,0.0181 -0.35395,0.0181 -0.26144,0 -0.5088,-0.0241 -0.64354,-0.0402 l 0.006,-1.5083 h -0.12267 c -0.0764,-0.01 -0.56913,-0.0845 -1.13424,-0.0845 -0.62142,0.002 -1.1282,0.17295 -1.13625,0.17496 l -0.0885,0.0322 v 1.42383 c -0.11061,0.0623 -0.40624,0.20713 -0.97738,0.20713 -0.6194,0 -0.9452,-0.13876 -1.06385,-0.20311 v -1.42785 l -0.0905,-0.0322 c -0.006,-0.002 -0.50477,-0.181 -1.16038,-0.18301 h -0.0261 c -0.61941,0 -1.09201,0.10257 -1.09804,0.10257 l -0.10256,0.0221 v 1.41176 c -0.0442,0.0121 -0.1086,0.0241 -0.181,0.0362 -0.17094,0.0282 -0.39819,0.0563 -0.64153,0.0543 -0.0543,0 -0.1106,-0.002 -0.17094,-0.006 -0.42031,-0.0201 -0.8185,-0.16089 -0.98139,-0.22725 v -2.86777 c 0.51483,0.0503 2.65661,0.24132 5.48013,0.24132 1.66516,0 3.56561,-0.0664 5.50829,-0.27149"
             style="fill:#dab859;fill-opacity:1;fill-rule:nonzero;stroke:none;stroke-width:2.01106"
             id="path889" /></g><g
           style="fill:#dab859;fill-opacity:1"
           id="g1742"><path
             style="fill:#dab859;fill-opacity:1;fill-rule:nonzero;stroke:none;stroke-width:2.01106"
             d="m 261.672,810.59319 0.0643,-0.0563 -0.0241,-0.0824 c 0,0 -1.80593,-5.42182 -2.09955,-6.3469 -0.3459,-0.53495 -1.04977,-0.73404 -1.28507,-0.79236 l -1.25892,-3.93363 c 1.32127,-0.33585 2.55203,-0.6898 3.6541,-1.0357 0.183,0.55706 0.78029,2.37707 0.79637,2.3811 1.43188,0.30568 2.2001,-0.70589 2.2001,-0.70589 l -0.79839,-2.40925 c 1.79387,-0.63348 3.07491,-1.17244 3.66415,-1.43187 l 1.31322,4.01005 c -0.16088,0.181 -0.6194,0.73605 -0.63147,1.28507 0,0.0804 0.0121,0.1629 0.0382,0.24133 0.18904,0.59728 2.00101,6.20814 2.00302,6.20814 l 0.0261,0.0925 h 0.0945 c 0.65158,0.0181 1.16641,0.23932 1.44595,0.38814 -4.53896,2.001 -9.06183,3.08094 -10.15585,3.3283 0.17497,-0.27149 0.50679,-0.74409 0.95325,-1.14027"
             id="path885" /><path
             d="m 271.28989,812.22899 c -0.34591,0.15284 -0.76823,0.24736 -0.96531,0.28758 l -0.45249,-1.41579 -0.11262,0.0141 c -0.006,0.002 -0.53695,0.0905 -1.11413,0.27954 -0.58723,0.19105 -1.01759,0.50477 -1.02363,0.5088 l -0.0764,0.0563 0.43841,1.36753 c -0.0824,0.0965 -0.3278,0.31774 -0.86475,0.4927 -0.37004,0.11866 -0.64957,0.14882 -0.84465,0.14882 -0.10859,0 -0.183,-0.0101 -0.23328,-0.0201 l -0.43841,-1.35344 h -0.0945 -0.0362 c -0.13273,0 -0.60734,0.0121 -1.14831,0.19507 -0.58924,0.18904 -1.00553,0.42836 -1.00956,0.43037 l -0.0945,0.0543 0.43438,1.34741 c -0.15686,0.0925 -0.51282,0.27953 -0.91503,0.38411 -0.27954,0.0744 -0.57114,0.0925 -0.7823,0.0925 -0.0925,0 -0.17094,-0.002 -0.22725,-0.006 l -0.88889,-2.74107 c 0.79437,-0.17295 5.6189,-1.27702 10.44343,-3.42282 l 0.88889,2.73705 c -0.14077,0.11664 -0.49874,0.4002 -0.88285,0.5631"
             style="fill:#dab859;fill-opacity:1;fill-rule:nonzero;stroke:none;stroke-width:2.01106"
             id="path891" /></g></g><g
         id="g1789"><path
           id="path893"
           style="fill:#d5071d;fill-opacity:1;fill-rule:nonzero;stroke:none;stroke-width:2.01106"
           d="m 233.02667,794.62438 c -0.21719,-0.39015 -0.43841,-0.61941 -0.43841,-0.61941 l -0.0221,0.46053 c -0.7823,-0.34188 -0.65159,-1.14027 -0.56712,-1.44394 0.16692,0.12871 0.67974,0.47863 1.40171,0.48065 0.52689,0.002 1.16038,-0.19307 1.82604,-0.80041 0.0101,0.002 0.2916,-0.39819 0.98743,-0.39819 0.18301,0 0.39618,0.0282 0.6556,0.1086 0.008,0 0.16692,0.0302 0.39618,0.0402 0.84063,0.48869 1.29915,1.41981 1.29915,1.41981 0.9271,1.52237 1.87229,1.49422 1.87229,1.49422 -0.4907,0.4364 -1.14027,0.41428 -1.14027,0.41428 -0.80442,-0.0483 -1.92659,-0.92308 -1.92659,-0.92308 l 0.32378,0.91302 c -0.48668,0.0865 -0.99749,-0.26144 -1.35546,-0.65963 -0.24132,-0.2916 -0.38813,-0.38612 -0.38813,-0.38612 l 0.17697,0.79236 c -0.41226,0.0483 -0.93514,-0.26546 -1.24886,-0.61941 -0.23128,-0.23328 -0.33585,-0.29563 -0.33585,-0.29563 l 0.15485,0.65159 c -0.18703,0.0221 -0.41629,-0.0804 -0.63549,-0.26546 -0.31574,-0.39015 -0.59126,-0.64756 -0.59126,-0.64756 l 0.0704,0.67169 c -0.12267,0 -0.3278,-0.16692 -0.51483,-0.38813" /><path
           id="path895"
           style="fill:#d5071d;fill-opacity:1;fill-rule:nonzero;stroke:none;stroke-width:2.01106"
           d="m 234.67594,783.48391 c 0.006,0.002 0.0181,0.002 0.0302,0.002 0.17496,0.004 1.71945,0.0443 1.95273,1.30719 0.002,0.006 0.002,0.0121 0.002,0.0201 0,0.002 0,0.004 0.002,0.004 0.0101,0.0684 0.0141,0.14077 0.0201,0.21317 0,0.0302 0.004,0.0543 0.004,0.0865 v 0.0603 c 0,0 0.002,0.008 0.002,0.0342 -0.004,0.1448 -0.0483,0.81649 -1.24887,1.49221 h -0.002 c -0.46053,0.28959 -0.84464,1.7094 -0.95324,1.88436 -0.006,0 -0.0845,0.26546 -0.43238,0.43238 -0.0744,0.0382 -0.21719,0.0724 -0.37003,0.0724 -0.12067,0 -0.24736,-0.0201 -0.37004,-0.0684 -0.33987,-0.13273 -0.41428,-0.40422 -0.43036,-0.44243 -0.0121,-0.0121 -0.0201,-0.0362 -0.0302,-0.0644 0,-0.008 -0.002,-0.0141 -0.004,-0.0201 -0.0101,-0.0261 -0.0161,-0.0583 -0.0201,-0.0945 0,-0.006 -0.002,-0.0121 -0.004,-0.0201 -0.0342,-0.20512 -0.0543,-0.52488 -0.0503,-0.76219 0,-0.15284 0.004,-0.27954 0.006,-0.34389 l 0.006,-1.95073 c 0,0 -0.004,-0.0241 -0.004,-0.0804 0.0141,-0.37607 0.0885,-1.71945 1.89442,-1.76169" /><path
           id="path897"
           style="fill:#ffffff;fill-opacity:1;fill-rule:nonzero;stroke:none;stroke-width:2.01106"
           d="m 237.95698,780.95119 c 0.59528,0.9653 0.61941,2.34489 0.2896,2.40723 -0.5269,0.0985 -0.16491,-1.57063 -2.86174,-1.81799 -2.60633,-0.23932 -7.48516,1.2006 -7.41478,5.7476 0.0262,1.7637 -0.2373,2.57617 -1.14228,2.57617 -0.91101,0 -3.23177,-1.44595 -3.23177,-6.51583 0,-4.21719 2.37506,-5.44595 2.68074,-5.27501 0.28758,0.16088 -1.73755,1.84414 -1.73755,5.42584 0,4.18702 1.7637,5.53041 1.89844,4.911 0.0664,-0.31372 -0.58924,-2.36299 -0.12067,-2.84363 0.27753,-0.28557 0.53696,1.0739 0.77225,0.64756 0.24736,-0.45852 -0.23932,-3.11513 0.90699,-3.79688 0.50276,-0.29563 0.11262,0.72398 0.48466,0.72398 0.51886,0 0.83861,-2.76923 2.06737,-2.84163 0.52087,-0.0282 -0.22725,1.1262 0.10257,1.1262 0.51885,0 1.38763,-1.99296 2.77123,-1.99296 0.55305,0 -0.6918,1.51835 0.12268,1.10407 2.4193,-1.22474 3.76269,-0.6355 4.41226,0.41428" /><path
           id="path899"
           style="fill:#ffffff;fill-opacity:1;fill-rule:nonzero;stroke:none;stroke-width:2.01106"
           d="m 239.28267,787.60115 c 0.004,-0.0141 1.60885,-0.89492 2.3087,-2.09753 0.0724,0.14077 0.17496,0.37406 0.17496,0.68175 -0.004,0.45249 -0.21317,1.04575 -1.13625,1.65711 -0.95927,0.62745 -1.41981,0.8366 -1.41981,0.8366 -0.006,0.002 -0.0101,0.0101 -0.0161,0.0141 -0.0141,0.0101 -0.0221,0.0201 -0.0322,0.0342 -0.0101,0.0161 -0.0181,0.0281 -0.0221,0.0462 -0.002,0.006 -0.0101,0.0101 -0.0101,0.0181 0,0.0101 0.0101,0.0181 0.0121,0.0282 0.002,0.0101 -0.004,0.0221 0.002,0.0342 0,0.006 0.0101,0.006 0.0141,0.0121 0.008,0.0161 0.0221,0.0241 0.0362,0.0362 0.0141,0.008 0.0241,0.0161 0.0402,0.0181 0.008,0.002 0.0121,0.0101 0.0201,0.0101 0.0724,0.004 0.14479,0.006 0.21317,0.006 1.15033,-0.002 2.00302,-0.44243 2.45349,-0.74208 -0.6556,1.41578 -2.71694,1.47008 -2.89994,1.46606 h -0.002 c -0.0141,0 -0.0201,0.008 -0.0342,0.01 -0.0141,0.002 -0.0282,0.008 -0.0443,0.0161 -0.0161,0.008 -0.0221,0.0201 -0.0342,0.0342 -0.006,0.008 -0.0181,0.0121 -0.0221,0.0221 -0.002,0.008 0,0.0141 0,0.0201 0,0.008 -0.0101,0.0121 -0.0101,0.0201 -0.002,0.0101 0.0101,0.0181 0.0101,0.0282 0.002,0.0181 0.004,0.0322 0.0161,0.0462 0.008,0.0161 0.0201,0.0261 0.0342,0.0362 0.0121,0.006 0.0121,0.0161 0.0241,0.0221 0.27753,0.11262 0.62142,0.1448 0.97537,0.14681 0.47662,0 0.9653,-0.0664 1.29914,-0.12267 -0.71795,0.63348 -1.73554,0.75012 -2.35696,0.75012 -0.32378,0 -0.52891,-0.0322 -0.52891,-0.0322 -0.0724,-0.01 -0.14077,0.0402 -0.14882,0.11061 -0.0101,0.0744 0.0362,0.14279 0.11463,0.15083 0,0 0.22323,0.0322 0.5631,0.0322 0.16491,0 0.364,-0.008 0.57918,-0.0322 -0.38411,0.33183 -0.92307,0.44244 -1.42785,0.44244 -0.6194,0 -1.14027,-0.1448 -1.14429,-0.14681 -0.0724,-0.0201 -0.1448,0.0201 -0.16089,0.0905 -0.0221,0.0704 0.0181,0.14278 0.0885,0.1649 0.006,0 0.55505,0.15687 1.21669,0.15687 0.0603,0 0.12268,-0.004 0.18301,-0.006 -0.27552,0.26948 -0.69784,0.34993 -1.04374,0.34792 -0.25943,0 -0.44445,-0.0362 -0.45048,-0.0362 -0.26948,-0.0805 -0.51282,-0.11463 -0.72398,-0.11463 -0.80845,0 -1.18854,0.48466 -1.18049,0.48265 -0.60935,0.55304 -1.16843,0.71393 -1.63097,0.71594 -0.76822,0.002 -1.28708,-0.45852 -1.28708,-0.46054 l -0.0543,-0.0503 -0.0724,0.0221 c -0.28356,0.0865 -0.54098,0.12066 -0.76622,0.12066 -0.84464,0.006 -1.34137,-0.49271 -1.57868,-0.82453 0.18301,0.0442 0.43037,0.0885 0.70588,0.0885 0.72801,0.006 1.69935,-0.32177 2.18401,-1.66918 l 0.0684,-0.18703 -0.1991,0.008 h -0.0885 c -0.364,0.0201 -1.71343,-0.0764 -2.10156,-0.5832 0.20714,0.0362 0.52489,0.0784 0.8728,0.0784 0.60734,0 1.34741,-0.15284 1.74962,-0.7079 0.0201,0.0744 0.0402,0.14078 0.0724,0.19105 0.006,0.0181 0.11664,0.39618 0.57315,0.5812 0.15485,0.0603 0.31574,0.0845 0.46254,0.0845 0.19307,0 0.362,-0.0402 0.48869,-0.0985 0.43439,-0.21317 0.5631,-0.56712 0.56109,-0.56712 0.0925,-0.20311 0.57516,-1.637 0.8366,-1.75766 h 0.002 c 0.62544,-0.34791 0.97134,-0.71795 1.1644,-1.02765 l 0.006,0.006 c 0.004,-0.0121 0.53494,-0.72599 0.53695,-1.83409 0,-0.77828 -0.85872,-2.2383 -2.66667,-2.11563 0.006,-0.002 -0.0342,-0.35193 0.51685,-0.35193 1.47611,0 2.69482,1.07591 2.69482,2.53192 0,0.35596 -0.0704,0.65963 -0.19106,1.03972 l 0.006,0.002 c -0.006,0.0543 0.008,0.11061 0.0563,0.14077 0.0643,0.0322 0.14479,0.008 0.17898,-0.0563 0.004,-0.008 0.88487,-1.60281 0.88889,-3.21568 0.004,-1.13625 -0.48467,-2.32479 -1.80794,-2.80141 -0.41227,-0.14882 -1.19658,-0.13072 -1.73555,0.0141 0.66164,-0.28758 1.49623,-0.37003 1.77979,-0.37003 1.62896,-0.002 2.5279,1.69934 2.54399,2.90195 v 0.0523 c 0.004,2.04324 -1.55254,4.13273 -1.55656,4.13675 v -0.002 c -0.0362,0.0623 -0.0181,0.14278 0.0463,0.17898 0.0543,0.0362 0.12066,0.0181 0.15887,-0.0302 l 0.0101,0.004 c 0.002,-0.0101 2.22021,-2.63449 2.23027,-5.11815 0,-0.37003 -0.0563,-0.73805 -0.17496,-1.08999 0.73001,0.57918 0.99346,1.24485 0.99547,1.94268 0.0141,2.16994 -2.68275,4.62343 -2.69281,4.62946 -0.0543,0.0463 -0.0583,0.13072 -0.0121,0.18703 0.0503,0.0543 0.13273,0.0603 0.18904,0.01 0,-0.0121 1.80593,-1.61085 2.50779,-3.47309 0.25339,0.30568 0.35797,0.60532 0.35998,0.90095 0.0302,1.42584 -2.48165,2.88989 -2.48768,2.89391 -0.0644,0.0322 -0.0885,0.11463 -0.0543,0.17899 0.0402,0.0623 0.11664,0.0865 0.18099,0.0503" /><path
           id="path901"
           style="fill:#000000;fill-opacity:1;fill-rule:nonzero;stroke:none;stroke-width:2.01106"
           d="m 233.58333,791.71618 c 0,-0.19708 -0.15887,-0.35796 -0.35998,-0.35796 -0.19507,0 -0.35596,0.16088 -0.35596,0.35796 0,0.1991 0.16089,0.35998 0.35596,0.35998 0.20111,0 0.35998,-0.16088 0.35998,-0.35998" /><path
           id="path903"
           style="fill:#d5071d;fill-opacity:1;fill-rule:nonzero;stroke:none;stroke-width:2.01106"
           d="m 252.66889,795.01251 0.0684,-0.67169 c 0,0 -0.2735,0.25741 -0.59326,0.64756 -0.21317,0.183 -0.44243,0.28758 -0.62946,0.26546 l 0.15284,-0.65159 c 0,0 -0.10458,0.0623 -0.33786,0.29563 -0.31372,0.35395 -0.83459,0.66767 -1.24283,0.61941 l 0.17094,-0.79437 c 0,0 -0.1448,0.0965 -0.38412,0.38813 -0.35796,0.39819 -0.87078,0.74409 -1.35746,0.65963 l 0.32579,-0.91302 c 0,0 -1.12418,0.87481 -1.92861,0.92106 0,0 -0.64957,0.0241 -1.14228,-0.41226 0,0 0.94721,0.0281 1.87632,-1.49422 0,0 0.45249,-0.93112 1.29713,-1.41981 0.22725,-0.0101 0.39015,-0.0402 0.39417,-0.0402 0.25943,-0.0804 0.47461,-0.1086 0.65762,-0.1086 0.69582,0 0.97938,0.40021 0.98944,0.39618 0.66365,0.60734 1.29512,0.80443 1.82202,0.80242 0.72197,-0.002 1.2368,-0.35194 1.40774,-0.48065 0.0804,0.30367 0.21116,1.10206 -0.57315,1.44394 l -0.0201,-0.46254 c 0,0 -0.22122,0.23127 -0.4364,0.62142 -0.18904,0.22121 -0.39417,0.38813 -0.51684,0.38813" /><path
           id="path905"
           style="fill:#d5071d;fill-opacity:1;fill-rule:nonzero;stroke:none;stroke-width:2.01106"
           d="m 253.43027,785.2458 c 0,0.0563 -0.004,0.0804 -0.004,0.0804 l 0.006,1.95073 c 0.002,0.0644 0.006,0.19105 0.006,0.34188 0.004,0.23932 -0.0161,0.55908 -0.0523,0.7642 0,0.008 0,0.0141 -0.004,0.0201 -0.006,0.0362 -0.0121,0.0684 -0.0201,0.0945 0,0.004 -0.002,0.0121 -0.002,0.0201 -0.0101,0.0281 -0.0221,0.0523 -0.0302,0.0643 -0.0161,0.0382 -0.0905,0.3097 -0.43238,0.44243 -0.12066,0.0483 -0.24937,0.0684 -0.36802,0.0684 -0.15485,0 -0.29764,-0.0342 -0.37406,-0.0724 -0.34389,-0.16692 -0.42433,-0.43238 -0.43439,-0.43238 -0.10457,-0.17496 -0.4907,-1.59477 -0.94922,-1.88436 h -0.002 c -1.2006,-0.67572 -1.24686,-1.34741 -1.25088,-1.49221 v -0.0362 -0.0583 c 0,-0.0322 0.004,-0.0563 0.008,-0.0865 0.004,-0.0724 0.01,-0.1448 0.0181,-0.21317 v -0.006 c 0.004,-0.006 0.004,-0.0121 0.008,-0.0181 0.22725,-1.26294 1.77577,-1.30316 1.95073,-1.3092 h 0.0322 c 1.8019,0.0422 1.87832,1.38562 1.89441,1.76169" /><path
           id="path907"
           style="fill:#ffffff;fill-opacity:1;fill-rule:nonzero;stroke:none;stroke-width:2.01106"
           d="m 248.2518,780.95119 c -0.59327,0.9653 -0.61941,2.34489 -0.28759,2.40723 0.52891,0.0985 0.16491,-1.57063 2.86375,-1.81799 2.60432,-0.23932 7.48516,1.2006 7.41076,5.7476 -0.0261,1.7637 0.23529,2.57617 1.1463,2.57617 0.90699,0 3.22775,-1.44595 3.22775,-6.51583 0,-4.21719 -2.37506,-5.44595 -2.67873,-5.27501 -0.29161,0.16088 1.73353,1.84414 1.73353,5.42584 0,4.18702 -1.76169,5.53041 -1.89442,4.911 -0.0704,-0.31372 0.58723,-2.36299 0.12067,-2.84363 -0.27753,-0.28557 -0.53897,1.0739 -0.77225,0.64756 -0.25339,-0.45852 0.2373,-3.11513 -0.909,-3.79688 -0.49874,-0.29563 -0.11463,0.72398 -0.48265,0.72398 -0.51886,0 -0.84063,-2.76923 -2.06938,-2.84163 -0.51684,-0.0282 0.22725,1.1262 -0.10257,1.1262 -0.51885,0 -1.38763,-1.99296 -2.77124,-1.99296 -0.54902,0 0.69181,1.51835 -0.12267,1.10407 -2.4193,-1.22474 -3.76068,-0.6355 -4.41226,0.41428" /><path
           id="path909"
           style="fill:#ffffff;fill-opacity:1;fill-rule:nonzero;stroke:none;stroke-width:2.01106"
           d="m 260.40282,787.32866 c -0.19307,-0.0422 0.48667,-2.37506 -0.64958,-2.28658 -0.17697,0.0141 -0.25942,0.39216 -0.3821,0.2172 -0.13072,-0.18301 0.38009,-2.50981 -1.13625,-3.24384 -0.72197,-0.34792 -0.50879,0.32981 -0.71191,0.1649 -0.15686,-0.12468 -0.4364,-2.03921 -1.85219,-2.2926 -0.74409,-0.13474 -0.51081,0.64354 -0.70186,0.59929 -0.17697,-0.0422 -0.73403,-1.34741 -2.36701,-1.39567 -0.70186,-0.0201 -0.0302,1.01357 -0.35998,0.88889 -1.06989,-0.40222 -1.24083,-1.08598 -3.17345,-1.08598 -2.44746,0 -2.47964,2.36702 -2.90196,2.6365 -0.29563,0.18703 0.65359,-2.05128 -0.11463,-1.80995 -0.78432,0.24736 -1.54852,1.11614 -1.56058,2.20211 -0.0101,1.03771 0.18904,1.38361 0.18904,1.38361 0,0 -0.56712,0.53494 -0.545,1.04776 0.0201,0.50075 0.11061,0.99749 0.11061,0.99749 0,0 -0.38613,0.66968 -0.16692,1.20663 0,0 -0.4183,-0.68577 -0.97335,-0.68577 -0.55506,0 -0.97336,0.68577 -0.97336,0.68577 0.21921,-0.53695 -0.16893,-1.20663 -0.16893,-1.20663 0,0 0.0905,-0.49674 0.11262,-0.99749 0.0221,-0.51282 -0.54499,-1.04776 -0.54499,-1.04776 0,0 0.19507,-0.3459 0.18904,-1.38361 -0.0141,-1.08597 -0.77426,-1.95475 -1.5626,-2.20211 -0.7642,-0.24133 0.18301,1.99698 -0.11262,1.80995 -0.42433,-0.26948 -0.45651,-2.6365 -2.90598,-2.6365 -1.9286,0 -2.10155,0.68376 -3.16943,1.08598 -0.33182,0.12468 0.33987,-0.909 -0.364,-0.88889 -1.62895,0.0483 -2.18803,1.35344 -2.36299,1.39567 -0.19306,0.0443 0.0402,-0.73403 -0.70588,-0.59929 -1.41579,0.25339 -1.6913,2.16792 -1.84817,2.2926 -0.20311,0.16491 0.008,-0.51282 -0.71191,-0.1649 -1.51835,0.73403 -1.00754,3.06083 -1.13625,3.24384 -0.12267,0.17496 -0.20714,-0.20312 -0.38612,-0.2172 -1.13223,-0.0885 -0.45249,2.24434 -0.64756,2.28658 -0.33987,0.0724 -0.85873,-1.44797 -0.85873,-3.84716 0,-3.1634 1.97285,-5.44423 1.97285,-5.44423 l 32.36599,2.9e-4 c 0,0 1.97285,2.28054 1.97285,5.44394 0,2.39919 -0.51282,3.91955 -0.85671,3.84716" /><path
           id="path911"
           style="fill:#ffffff;fill-opacity:1;fill-rule:nonzero;stroke:none;stroke-width:2.01106"
           d="m 254.11484,790.0651 h -0.0845 l -0.2011,-0.01 0.0704,0.18703 c 0.48467,1.34741 1.45199,1.67722 2.18401,1.67119 0.27351,0 0.51886,-0.0443 0.70186,-0.0885 -0.2373,0.33183 -0.73403,0.83057 -1.57466,0.82454 -0.22725,0 -0.48265,-0.0342 -0.76621,-0.12067 l -0.0744,-0.0221 -0.0543,0.0483 c 0,0.002 -0.51684,0.46254 -1.28707,0.46254 -0.46255,-0.002 -1.0176,-0.1629 -1.62695,-0.71594 0.004,0.002 -0.37607,-0.48265 -1.18452,-0.48265 -0.21317,0 -0.45651,0.0322 -0.72197,0.11463 -0.006,0 -0.19507,0.0362 -0.45248,0.0362 -0.34792,0.002 -0.77024,-0.0804 -1.04575,-0.34792 0.0644,0.002 0.12468,0.006 0.18501,0.006 0.66164,0 1.21267,-0.15687 1.21669,-0.15888 0.0704,-0.0201 0.11262,-0.0925 0.0925,-0.16289 -0.0201,-0.0704 -0.0925,-0.11061 -0.1649,-0.0925 -0.002,0.004 -0.52489,0.14882 -1.1443,0.14882 -0.50678,0 -1.04374,-0.11061 -1.42584,-0.44244 0.21116,0.0241 0.41026,0.0322 0.57516,0.0322 0.34188,0 0.56511,-0.0322 0.56913,-0.0322 0.0724,-0.01 0.12268,-0.0764 0.11262,-0.15082 -0.0141,-0.0704 -0.0784,-0.12067 -0.15284,-0.11061 0,0 -0.20714,0.0322 -0.52891,0.0322 -0.61739,0 -1.637,-0.11664 -2.35293,-0.75213 0.32981,0.0563 0.82051,0.12468 1.29914,0.12468 0.34992,-0.002 0.69583,-0.0362 0.97335,-0.14882 0.0101,-0.004 0.0141,-0.0161 0.0221,-0.0201 0.0141,-0.0101 0.0282,-0.0201 0.0362,-0.0362 0.0101,-0.0141 0.0141,-0.0282 0.0161,-0.0483 0,-0.008 0.008,-0.0161 0.008,-0.0281 -0.002,-0.006 -0.008,-0.0101 -0.008,-0.0181 -0.002,-0.006 0.004,-0.0121 0,-0.0201 -0.006,-0.01 -0.0161,-0.0141 -0.0241,-0.0241 -0.006,-0.0121 -0.0181,-0.0241 -0.0322,-0.0322 -0.0141,-0.0101 -0.0282,-0.0141 -0.0503,-0.0161 -0.008,-0.002 -0.0161,-0.0101 -0.0241,-0.0101 h -0.004 c -0.18502,0.004 -2.24836,-0.0503 -2.89995,-1.46606 0.45048,0.29965 1.30317,0.74007 2.4535,0.74208 0.0643,0 0.13876,-0.002 0.20915,-0.006 0.008,0 0.0141,-0.008 0.0221,-0.0101 0.0161,-0.004 0.0281,-0.01 0.0422,-0.0201 0.0121,-0.01 0.0241,-0.0181 0.0362,-0.0342 0.004,-0.006 0.0121,-0.006 0.0141,-0.0121 0.004,-0.0141 0,-0.0241 0.002,-0.0342 0.002,-0.0121 0.008,-0.0181 0.008,-0.0282 0,-0.008 -0.006,-0.0121 -0.008,-0.0181 -0.002,-0.0201 -0.0101,-0.0302 -0.0241,-0.0462 -0.008,-0.0141 -0.0161,-0.0241 -0.0322,-0.0342 -0.004,-0.004 -0.006,-0.0121 -0.0121,-0.0141 0,0 -0.46053,-0.20915 -1.42182,-0.8366 -0.92307,-0.61136 -1.13222,-1.20462 -1.13625,-1.65711 0,-0.30769 0.10056,-0.54298 0.17497,-0.68175 0.69783,1.20262 2.30467,2.08346 2.30668,2.09754 0.0644,0.0342 0.1448,0.0121 0.181,-0.0503 0.0342,-0.0643 0.0141,-0.14681 -0.0503,-0.17898 -0.0121,-0.004 -2.52187,-1.46808 -2.4917,-2.89392 0.002,-0.29562 0.10859,-0.59527 0.36601,-0.90095 0.69985,1.86224 2.50578,3.46103 2.50578,3.4731 0.0563,0.0503 0.13675,0.0422 0.18301,-0.0101 0.0503,-0.0563 0.0483,-0.14077 -0.006,-0.18703 -0.0101,-0.006 -2.7109,-2.45952 -2.69482,-4.62946 0.004,-0.69783 0.26546,-1.36349 0.99146,-1.94268 -0.11665,0.35194 -0.16893,0.71996 -0.16893,1.09 0.0101,2.48365 2.22825,5.10607 2.22825,5.11814 l 0.006,-0.006 c 0.0422,0.0503 0.11061,0.0664 0.16491,0.0322 0.0643,-0.0362 0.0824,-0.11665 0.0463,-0.17899 -0.006,-0.002 -1.56059,-2.0915 -1.55858,-4.13675 v -0.0503 c 0.0181,-1.20262 0.91303,-2.90397 2.54399,-2.90397 0.28356,0 1.11815,0.0845 1.77577,0.37204 -0.53695,-0.14479 -1.31926,-0.1649 -1.72951,-0.0161 -1.3273,0.47864 -1.81398,1.66717 -1.80593,2.80141 0.004,1.61488 0.87883,3.20965 0.88084,3.21769 0.0362,0.0644 0.11664,0.0885 0.17899,0.0543 0.0523,-0.0282 0.0664,-0.0845 0.0603,-0.13876 l 0.006,-0.002 c -0.11865,-0.38009 -0.19306,-0.68376 -0.19306,-1.03972 0,-1.45601 1.2187,-2.53192 2.69683,-2.53192 0.55103,0 0.51282,0.34992 0.51684,0.35193 -1.80794,-0.12267 -2.66666,1.33736 -2.66465,2.11363 0,1.1101 0.52891,1.82403 0.53293,1.83408 l 0.0121,-0.004 c 0.18904,0.3097 0.53495,0.67974 1.16039,1.02765 0.26546,0.12066 0.75012,1.55254 0.8366,1.75767 0,0 0.12669,0.35394 0.5651,0.5651 0.12469,0.0603 0.29362,0.10056 0.48668,0.10056 0.14681,0 0.3097,-0.0241 0.46254,-0.0865 0.4545,-0.183 0.56913,-0.5631 0.57316,-0.57918 0.0302,-0.0503 0.0543,-0.11866 0.0684,-0.19105 0.40422,0.55505 1.14832,0.70789 1.75365,0.70789 0.34992,0 0.66364,-0.0422 0.87481,-0.0784 -0.39015,0.50477 -1.74158,0.6013 -2.10558,0.5832" /><path
           id="path913"
           style="fill:#000000;fill-opacity:1;fill-rule:nonzero;stroke:none;stroke-width:2.01106"
           d="m 252.62545,791.71618 c 0,-0.19708 0.16088,-0.35796 0.35998,-0.35796 0.19708,0 0.35796,0.16088 0.35796,0.35796 0,0.1991 -0.16088,0.35998 -0.35796,0.35998 -0.1991,0 -0.35998,-0.16088 -0.35998,-0.35998" /></g><g
         id="g1725"><g
           id="g1675"><path
             style="fill:#dab859;fill-opacity:1;fill-rule:nonzero;stroke:none;stroke-width:2.01106"
             d="m 248.03905,748.07345 c 0,0 0.76621,0.53092 0.76621,1.44595 0,0 0.0221,1.05983 -1.14832,1.05983 0,0 -1.39969,0.15686 -2.07541,-2.96833 h -0.70789 c 0.002,0.94721 0.18703,6.83157 4.17094,6.83157 0,0 2.18401,0.0422 2.60633,-2.31875 0,0 0.42232,-3.41277 -3.61186,-4.05027"
             id="path1636" /><path
             style="fill:#dab859;fill-opacity:1;fill-rule:nonzero;stroke:none;stroke-width:2.01106"
             d="m 243.74944,744.80749 c 0,0 1.32931,-2.30267 -0.62947,-4.26144 h -0.0221 c -1.95274,1.95877 -0.62946,4.26144 -0.62946,4.26144 -0.63549,-1.30317 -3.39668,-1.10206 -3.39668,-1.10206 2.22222,1.00351 2.89593,2.24836 3.07692,2.69683 h 1.92056 c 0.17899,-0.44847 0.8547,-1.69332 3.07693,-2.69683 0,0 -2.75918,-0.20111 -3.39668,1.10206"
             id="path1634" /><path
             style="fill:#dab859;fill-opacity:1;fill-rule:nonzero;stroke:none;stroke-width:2.01106"
             d="m 246.30348,747.34745 c 0.18703,-0.002 0.34188,-0.15485 0.34188,-0.33785 0,-0.19105 -0.15485,-0.3439 -0.34188,-0.3439 h -6.38913 c -0.18904,0 -0.34188,0.15285 -0.34188,0.3439 0,0.183 0.15284,0.33584 0.34188,0.33785 z"
             id="path1632" /><path
             style="fill:#dab859;fill-opacity:1;fill-rule:nonzero;stroke:none;stroke-width:2.01106"
             d="m 243.14813,747.6109 c 0.87883,4.90296 -0.0362,9.57667 -0.0362,9.57667 h -0.0221 c 0,0 -0.91503,-4.67371 -0.0362,-9.57667 h -0.63348 c -0.1086,0.45852 -0.54902,2.17999 -1.69332,5.68527 -1.88838,5.78179 2.37909,8.06837 2.37909,8.06837 h 0.008 c 0,0 4.26546,-2.28658 2.37908,-8.06837 -1.14429,-3.50528 -1.5827,-5.22675 -1.6913,-5.68527 z"
             id="path1630" /><path
             style="fill:#dab859;fill-opacity:1;fill-rule:nonzero;stroke:none;stroke-width:2.01106"
             d="m 238.5609,750.57923 c -1.16842,0 -1.1463,-1.05983 -1.1463,-1.05983 0,-0.91503 0.7642,-1.44595 0.7642,-1.44595 -4.03418,0.6375 -3.60784,4.05027 -3.60784,4.05027 0.42434,2.36098 2.60634,2.31875 2.60634,2.31875 3.98189,0 4.16892,-5.88436 4.17093,-6.83157 h -0.71191 c -0.67371,3.12519 -2.07542,2.96833 -2.07542,2.96833"
             id="path1628" /></g><use
           height="100%"
           width="100%"
           transform="translate(12.722212,13.803905)"
           id="use1713"
           xlink:href="#g1675"
           y="0"
           x="0" /><use
           height="100%"
           width="100%"
           transform="translate(-12.724746,13.803905)"
           id="use1715"
           xlink:href="#g1675"
           y="0"
           x="0" /></g></g></g></svg>
